<svg width="45" height="46" viewBox="0 0 45 46" fill="none" xmlns="http://www.w3.org/2000/svg">
<rect y="0.498047" width="44.9999" height="45" rx="5" fill="#FF7516"/>
<circle cx="22.5" cy="22.998" r="22.5" fill="#FF7516"/>
<path d="M22.4199 21.9573H24.4199V18.9573H27.4199V16.9573H24.4199V13.9573H22.4199V16.9573H19.4199V18.9573H22.4199V21.9573ZM18.4199 30.9573C17.3199 30.9573 16.4299 31.8573 16.4299 32.9573C16.4299 34.0573 17.3199 34.9573 18.4199 34.9573C19.5199 34.9573 20.4199 34.0573 20.4199 32.9573C20.4199 31.8573 19.5199 30.9573 18.4199 30.9573ZM28.4199 30.9573C27.3199 30.9573 26.4299 31.8573 26.4299 32.9573C26.4299 34.0573 27.3199 34.9573 28.4199 34.9573C29.5199 34.9573 30.4199 34.0573 30.4199 32.9573C30.4199 31.8573 29.5199 30.9573 28.4199 30.9573ZM19.5199 25.9573H26.9699C27.7199 25.9573 28.3799 25.5473 28.7199 24.9273L32.5799 17.9173L30.8399 16.9573L26.9699 23.9573H19.9499L15.6899 14.9573H12.4199V16.9573H14.4199L18.0199 24.5473L16.6699 26.9873C15.9399 28.3273 16.8999 29.9573 18.4199 29.9573H30.4199V27.9573H18.4199L19.5199 25.9573Z" fill="white"/>
</svg>
