<svg width="202" height="38" fill="none" xmlns="http://www.w3.org/2000/svg"><path d="m5.099 13.83.341-.204M5.44 13.626l.365.205M5.805 13.83v.41M140.679 15.152l.364-.182M141.043 14.97l.365.182M141.407 15.152v.432M194.442 15.47l.137.228M194.692 15.903l-.022-.045M194.692 15.903l.023.023M195.216 15.425l-.023-.068M195.193 15.402v-.045M195.216 15.493l.046.069M195.216 15.425l.023.068.023.023v.046l.023.022v.023l-.023-.023v-.022M195.193 15.402l.023.023" stroke="#3C3C3B" stroke-width=".447" stroke-miterlimit="10" stroke-linecap="round" stroke-linejoin="round"/><path d="m195.193 15.402.023.023v.068M195.284 15.607l-.569.319M194.601 15.744l-.023-.046M145.575 16.108h-.069M145.506 16.017v-.433M145.506 16.222h-1.616M145.506 16.222v-.205M4.825 16.017v.205M4.826 16.108h-.069M143.457 16.222H89.945M87.417 16.222H83.59M68.403 16.222h-5.51M60.364 16.222H4.825M195.581 19.98h.204M197.266 19.729l-.023.068-.023.114-.068.068-.069.091-.091.069-.114.068-.159.068-.159.023-.183.046-.182.022-.182.023h-.182l-.046.023M196.833 19.729v-.046M197.266 18.704v.98M196.833 18.704v-3.871M194.123 12.374h.159l.274.022.296.023.273.068.273.091.251.092.25.113.228.16.205.136.205.183.182.182.137.182.136.205.114.205.068.228.046.227.023.228.022.114M194.123 12.783h-.683M190.958 14.036v-.091l.023-.182.045-.16.091-.16.091-.159.137-.159.16-.137.159-.136.182-.091.228-.114.205-.091.227-.069.251-.068.25-.023.251-.022h.182M195.785 20.412h-.204M195.785 19.98h.251l.159-.024.16-.022.136-.046.114-.023.114-.045.046-.046.045-.023.023-.022M197.266 19.683v.046M196.833 18.704v.98M197.266 14.833v3.871" stroke="#3C3C3B" stroke-width=".447" stroke-miterlimit="10" stroke-linecap="round" stroke-linejoin="round"/><path d="M196.833 14.833v-.091l-.023-.205-.068-.205-.069-.182-.113-.205-.114-.16-.137-.182-.182-.136-.182-.16-.205-.114-.228-.114-.228-.113-.25-.069-.251-.045-.273-.046-.25-.023h-.137M193.44 12.374h.683M193.44 12.783h-.114l-.228.023-.227.023-.205.045-.228.069-.182.068-.182.091-.16.114-.159.091-.114.137-.114.114-.068.114-.069.136-.022.137v.09M191.368 14.036v.068h-.023v.023h-.023v.023h-.023v.022h-.022v.023h-.069v.023h-.091v-.023h-.068M191.049 14.195v-.023h-.045v-.022h-.023v-.046h-.023v-.068M116.906 19.615l-.16-.182-.113-.183-.092-.204-.091-.205-.068-.25M195.034 20.526v.16M59.75 19.888h-.068M59.682 19.137h.068M1.774 6.567h.182M145.666 16.973v-1.389M145.575 16.973v-1.389M4.803 17.155h.09M4.803 17.042h.09M190.73 20.571l.16-.045M194.783 20.685v-.16M194.214 20.73v.16M194.374 20.73v.16M194.692 20.73v.16M194.852 20.73v.16M90.377 18.066l.16-.022M90.309 17.588l.136-.023M59.681 19.387h-.113M59.681 19.638h-.113M59.681 19.752h-.113M59.681 19.273h-.113M59.955 17.702l-.137-.023M59.932 17.93l-.16-.023M59.91 18.066l-.137-.022M59.977 17.588l-.136-.023M189.91 17.292v1.526H196.127M1.956 12.214h-.182M3.254 16.86v-3.553M145.78 16.86v-1.253M4.552 16.86v-3.553M147.078 16.86v-3.553M4.643 16.86v-3.553M147.169 16.86v-3.553M4.757 19.068v-5.76M3.163 16.86v-3.553M4.666 19.068v-5.76M145.666 16.86v-1.276M145.575 13.307h.023M147.374 13.307h.751M59.568 17.861l.045-.022.046-.023.045-.023.023-.068.023-.046-.023-.045-.023-.046-.045-.045h-.046l-.045-.023-.046.023h-.045l-.046.045-.023.046v.091l.023.068.046.023.045.023.046.022zM90.719 17.861l.045-.022.046-.023.045-.023.023-.068.023-.046-.023-.045-.023-.046-.045-.045h-.046l-.045-.023-.046.023h-.045l-.046.045-.023.046v.091l.023.068.046.023.045.023.046.022zM118.318 18.84v.092l-.023.09-.069.07-.045.067-.16.069M145.575 16.973h.091M147.374 16.973h.751M59.682 19.137v.751M117.953 19.228h-.023M117.839 19.228l-.068-.023-.068-.046-.069-.068-.045-.068-.023-.091-.023-.091.023-.069.023-.09.045-.07.069-.067.159-.069" stroke="#3C3C3B" stroke-width=".447" stroke-miterlimit="10" stroke-linecap="round" stroke-linejoin="round"/><path d="m118.021 18.476.092.023.068.046.045.068.046.068.046.091v.069M59.818 17.11h.023M127.904 5.36v1.344M19.604 5.36v1.344M59.818 17.224h-.5M127.904 6.704h2.824M19.604 6.704h2.847M59.317 17.224h-.023M130.728 6.704V5.36M22.45 6.704V5.36M59.317 17.11h.501M130.728 5.36h-2.824M22.45 5.36h-2.846M59.84 17.224h-.022M59.294 17.11h.023M1.774 6.658v5.283M1.774 12.214v-.273M116.701 19.273v-.751M119.183 19.273V17.84M1.774 6.658v-.091M91.994 17.178l-.797 1.572M4.598 19.068h-1.39M3.368 16.973h-.114M145.893 16.973h-.113M59.75 18.932h-.364M2.981 13.307H2.23M90.901 18.932h-.364M3.368 16.973h1.07M2.981 19.068H2.23M145.894 16.973h1.07M59.386 18.932h-.046l-.091-.023-.046-.046-.09-.113M4.438 16.973h.114M146.964 16.973h.114M59.112 18.75l-.797-1.572M58.315 17.178l-.045-.068v-.091M58.27 17.019v-.342M58.27 16.677v-.068l.045-.068.023-.069.068-.045.046-.046.091-.023h.068M4.757 13.307h-.023M92.017 16.677v.342M4.757 19.068h-.09M92.017 17.019v.091l-.023.068M191.869 23.873h-.091l-.069-.023-.068-.045-.046-.046-.045-.136M191.869 23.714l-.069-.023-.045-.023-.023-.023-.023-.068M193.053 23.623l-.023.068-.045.068-.069.046-.045.045-.16.023M192.871 23.577v.046l-.046.045-.045.023-.069.023M193.622 20.776l.046-.068.045-.068.046-.046.068-.046.137-.022M193.804 20.822v-.046l.046-.045.045-.023.069-.023M60.023 17.36l-.137.752M60.023 18.135l.114-.752M59.91 17.11h.045l.068.023.046.045.045.046.023.068v.091M59.91 17.224h.022l.045.023.023.022.023.046v.045M59.158 17.224h.751M59.91 17.11h-.752M135.624 15.903h.022l.046-.023h.023v-.136l-.023-.023-.046-.023h-.068l-.023.023-.022.023-.023.023v.068l.023.045h.022l.023.023h.046zM139.381 15.903h.023l.022-.023h.023l.023-.045v-.068l-.023-.023-.023-.023-.022-.023h-.069l-.022.023-.023.023-.023.023v.068l.023.045h.023l.022.023h.046zM135.624 13.83h.022l.046-.022.023-.023V13.671l-.023-.022-.046-.023h-.068l-.023.023-.022.023-.023.022v.069l.023.022.022.023.023.023h.046zM139.381 13.83h.023l.022-.022.023-.023.023-.022v-.069l-.023-.023-.023-.022-.022-.023h-.069l-.022.023-.023.023-.023.022v.069l.023.022.023.023.022.023h.046zM12.226 14.24h.046l.068-.022.023-.023.023-.045.022-.046v-.091l-.022-.046-.023-.045-.023-.023-.068-.022-.046-.023-.045.023-.046.022-.046.023-.022.045-.023.046v.091l.023.046.022.045.046.023.046.023h.045zM16.621 14.24h.046l.045-.022.046-.023.023-.045.022-.046v-.091l-.023-.046-.022-.045-.046-.023-.045-.022-.046-.023-.045.023-.046.022-.046.023-.045.045v.183l.046.045.045.023.046.023h.045zM40.166 14.355l.023-.069M54.786 14.355v-.069M69.382 14.355l.023-.069M111.964 14.355l.023-.069M90.263 17.36l.137.752M90.15 17.383v-.045l.022-.069.023-.068.046-.046.045-.022.114-.023M90.263 17.36v-.022l.023-.046.023-.023.023-.022.068-.023M91.129 17.224h-.73M90.4 17.11h.729M195.034 20.685h-.251M40.417 14.286l.023.046-.023.091M55.036 14.286l.023.046-.023.091M69.655 14.286v.137M112.238 14.286l.022.046-.022.091M40.19 14.423l-.023-.068M54.786 14.423v-.068M69.405 14.423l-.023-.068M111.987 14.423l-.023-.068M190.73 20.571l-.023-.045M191.709 23.577l-.819-3.051M191.55 23.623l-.82-3.052M194.784 20.685h-.82M192.711 23.714h-.842M192.711 23.873h-.842M193.622 20.776l-.751 2.801M193.804 20.822l-.751 2.8M61.276 20.002l.478.114.455.16.433.159.433.182.432.205.433.227.41.25.387.274M191.687 17.884v-.341M190.639 17.884v-.341M60.137 20.093l.478.046.456.09.478.114.455.137.456.16.432.182.433.205.41.205.41.25.523.342M58.27 19.934l-.137-.023M195.581 20.275V18.91M195.581 16.791v.091M198.131 16.791v.091M195.831 16.791h1.002M197.88 16.791h.251M195.581 16.791h.25M197.266 16.791h.614M116.906 20.275v-.865M1.957 6.453h.09M2.048 12.328h-.091M69.655 14.377h-.25M69.655 14.332h-.25M40.417 14.377h-.227M40.417 14.332h-.227M55.036 14.377h-.25M55.036 14.332h-.25M112.238 14.377h-.251M112.238 14.332h-.251M69.405 14.377h-.023M69.405 14.332h-.023M40.19 14.377h-.023M40.19 14.332h-.023M40.44 14.377h-.023M40.44 14.332h-.023M55.059 14.377h-.023M55.059 14.332h-.023M112.26 14.377h-.022M112.26 14.332h-.022M1.957 6.612v5.26M1.957 12.328v-.455M1.957 6.612v-.159M175.724 17.429v2.846M4.962 16.45h-.205M201 18.818v.09M196.127 18.818v.09M196.127 18.909h.706M196.127 18.818h.706M190.366 18.909h5.761M201 18.909h-1.412M201 18.818h-1.412M197.266 18.909h2.322M197.266 18.818h2.322M194.601 15.744l.069.114M195.216 15.516l.046.046M194.761 15.698l.273-.16M195.034 15.539h.023v-.023H195.216M194.67 15.858v-.091h.022v-.023h.023v-.023h.023v-.023h.023M196.651 15.903l-.091-.16M197.379 15.903l-.113.023M197.516 16.085l-.068-.136M196.764 15.971l-.022-.022h-.046l-.045-.046M195.171 15.425l.045.068M194.715 15.607l.273-.16M195.239 15.288l.045-.023M197.379 15.903h.023l.046.046M194.989 15.448v-.023h.068v-.023h.091v.023h.023M194.601 15.744v-.046h.023v-.023h.023v-.022h.023v-.023h.022v-.023h.023M195.193 15.357v-.023l.023-.023.023-.023M196.787 16.518l.046-.023M194.601 15.22l-.159.25M196.833 15.949l-.068.022M197.266 16.245l.25-.16M5.35 17.019h-.16M5.35 16.882h-.16M5.35 17.064h-.205M5.145 16.86h.204M5.35 16.86v.204M197.47 19.342l.729-.433M197.266 18.954l.205.388M4.917 16.814h.045M191.983 15.129v.797M190.685 14.81l-.046-.068M190.571 14.537l.023-.137.022-.16.023-.136.091-.16M190.73 13.922l.046-.046.068-.045.091-.068h.046M190.32 15.106l.023-.114M190.343 14.992v-.023l.046-.136.068-.137.091-.114.045-.045M194.783 20.936v.09M199.497 16.905l.159.023.137.023.159.045.114.068.137.091.114.092.114.113.068.137.068.137.046.136.023.137.022.16-.022.136-.023.16-.068.204M5.19 16.882h-.045M5.19 17.019h-.045M5.144 17.064h-.182M5.19 17.019l-.045.045M5.145 16.86l.045.022M194.67 21.232v-.046M194.396 21.232v-.046M194.419 21.232l-.045-.046M194.715 21.186l-.045.046M194.374 21.186v-.16M4.962 17.11h-.045M191.914 16.2v.067M190.32 15.926v-.797M191.686 14.742l-.068.068M191.687 14.742v.045M191.595 13.945l.069.136.045.137.023.137v.182M194.305 21.027v-.091M148.284 6.066l.069.023.045.045.023.023.023.091M198.996 17.042l.137-.069.136-.022.228-.046M4.962 16.882h.182M4.962 17.019h.182M4.962 16.86h.182M90.218 17.748h-.023M194.67 21.027v.159M194.396 21.027v.159M194.715 21.027v.159M60.046 17.93h.023M60.046 17.975v-.023M190.639 14.787v-.045M191.413 13.785l.069.046.068.068.023.046M191.732 14.537l.068.09.091.137.046.137.023.091M190.411 16.267V16.2M4.757 16.814l.046-.046M4.917 17.11l-.023.046M194.783 20.685l.069.046M194.305 20.936l-.091-.046M4.803 17.155l-.046-.045M4.894 16.768l.023.046M194.214 20.73l.091-.045M194.852 20.89l-.069.046M5.554 16.632h-.592M191.983 15.926V16.04l-.023.023v.045l-.023.023v.045l-.023.023v.023h-.022v.023h-.023v.022h-.023v.023h-.023v.023h-.022v.023h-.023v.023h-.023v.022h-.023v.023h-.023l-.022.023h-.023v.023h-.068v.022h-.023l-.023.023h-.045l-.023.023h-.046l-.023.023h-.068l-.023.023h-.341v-.023h-.091l-.023-.023h-.046v-.023h-.045l-.023-.023h-.023l-.022-.022h-.069v-.023h-.023M191.618 14.81v.023h-.023v.023h-.023v.045h-.022l-.023.023h-.023v.023h-.023v.023h-.068v.022h-.045l-.023.023h-.091v.023H191.049v-.023h-.091v-.023h-.069v-.023h-.045v-.022h-.023" stroke="#3C3C3B" stroke-width=".447" stroke-miterlimit="10" stroke-linecap="round" stroke-linejoin="round"/><path d="M191.686 14.787v.023h-.022v.068l-.023.023v.046h-.023v.023h-.023v.022h-.023v.023l-.022.023h-.023v.023h-.023v.022h-.045v.023h-.023l-.023.023h-.045v.023H191.231l-.023.022H191.094l-.022-.022H190.958l-.023-.023h-.046v-.023h-.045v-.023h-.023" stroke="#3C3C3B" stroke-width=".447" stroke-miterlimit="10" stroke-linecap="round" stroke-linejoin="round"/><path d="M191.755 14.537v.023l-.023.022v.069h-.022v.045l-.023.023v.023h-.023v.022h-.023v.023h-.023v.023h-.022v.023h-.023v.023h-.023v.022h-.045v.023h-.046v.023h-.046l-.022.023h-.023l-.023.023H190.981l-.023-.023h-.045l-.023-.023h-.046V14.9h-.023l-.022-.023h-.023M5.19 16.996v-.114M5.145 16.996v-.136M194.305 20.936h.479M191.573 13.945h.023M191.755 14.56v.045M194.419 21.232h.251M194.374 21.186h.341M190.616 16.427v-.023h-.022v-.023h-.023l-.023-.023h-.023v-.022h-.023v-.023h-.022v-.023h-.023v-.023l-.023-.022v-.023h-.023v-.023l-.022-.023v-.022h-.023v-.046l-.023-.023v-.045h-.023V15.926M190.821 14.947l-.023-.023h-.022V14.9h-.023v-.023h-.023v-.022h-.023v-.023h-.022v-.023M190.821 15.083v-.022h-.022l-.023-.023h-.023v-.023h-.023v-.023h-.023v-.023h-.022v-.022l-.023-.023v-.046h-.023v-.091" stroke="#3C3C3B" stroke-width=".447" stroke-miterlimit="10" stroke-linecap="round" stroke-linejoin="round"/><path d="M190.776 14.878v-.022h-.023l-.023-.023-.023-.023h-.022v-.023h-.023v-.023h-.023v-.045h-.023v-.045h-.022v-.069h-.023v-.068M190.32 15.129v-.023M5.19 17.019v-.023M5.145 17.064v-.068M190.548 14.582h.023v-.022M5.554 16.29v.091M4.962 16.29v.091M117.931 19.16l.068-.023.068-.023.046-.023.068-.068.023-.046.023-.045v-.137l-.023-.068-.023-.069-.068-.022-.046-.046-.068-.023h-.137l-.045.023-.069.046-.045.022-.023.069-.023.068-.022.046.022.09.023.046.023.046.045.068.069.023.045.023.069.022z" stroke="#3C3C3B" stroke-width=".447" stroke-miterlimit="10" stroke-linecap="round" stroke-linejoin="round"/><path d="M117.931 19.228h.091l.068-.023.091-.046.046-.068.045-.068.023-.091.023-.091-.023-.069-.023-.09-.045-.046-.046-.069-.091-.045-.068-.046h-.16l-.091.046-.068.045-.069.069-.022.045-.046.091v.159l.046.092.022.068.069.068.068.046.091.023h.069zM6.032 16.404h-.478M90.537 17.975v.069M59.522 19.319l.046-.046M59.818 17.611l.023-.046M7.262 16.222l-1.23.182M90.446 17.565l.045.046M59.568 19.752l-.046-.046M59.773 18.044l-.023-.069M192.165 15.926v.592M192.028 16.882v.114M190.161 16.518v-.592M190.275 16.996v-.114M5.44 15.698l.091-.023.046-.022.068-.023.069-.069.022-.045.023-.068v-.137l-.023-.068-.022-.069-.069-.045-.068-.046-.046-.022h-.159l-.068.022-.046.046-.068.045-.023.069-.023.068-.022.046.022.09.023.069.023.046.068.068.046.023.068.022.068.023zM5.44 14.355h.091l.046-.023.068-.046.069-.045.022-.069.023-.068v-.137l-.023-.068-.022-.068-.069-.046-.068-.045-.046-.023h-.159l-.068.023-.046.045-.068.046-.023.068-.023.069-.022.068.022.068.023.069.023.068.068.045.046.046.068.023h.068zM120.481 14.355h.068l.068-.023.069-.046.045-.045.046-.069.022-.068v-.137l-.022-.068-.046-.068-.045-.046-.069-.045-.068-.023h-.137l-.068.023-.068.045-.046.046-.023.068-.022.069-.023.068.023.068.022.069.023.068.046.045.068.046.068.023h.069zM141.043 15.698l.068-.023.069-.022.068-.023.046-.069.045-.045.023-.068v-.137l-.023-.068-.045-.069-.046-.045-.068-.046-.069-.022h-.136l-.068.022-.069.046-.045.045-.046.069-.023.068v.136l.023.069.046.046.045.068.069.023.068.022.068.023zM146.508 15.903l.069.046.045.045.023.046.023.045v.137l-.046.068-.045.046-.046.023-.114.022M191.413 17.634l.046.068.045.068v.16l-.022.09-.046.07-.045.045-.069.045-.068.046h-.091M120.481 15.698l.068-.023.068-.022.069-.023.045-.069.046-.045.022-.068v-.137l-.022-.068-.046-.069-.045-.045-.069-.046-.068-.022h-.137l-.068.022-.068.046-.046.045-.023.069-.022.068-.023.046.023.09.022.069.023.046.046.068.068.023.068.022.069.023zM117.93 19.57h-.113l-.091-.046-.114-.046-.114-.068M6.032 16.404v-.182M144.892 14.355h.068l.068-.023.069-.046.022-.045.046-.069.023-.068.022-.068-.022-.069-.023-.068-.046-.068-.022-.046-.069-.045-.068-.023h-.159l-.046.023-.068.045-.046.046-.045.068-.023.069-.023.068.023.068.023.069.045.068.046.045.068.046.046.023h.091zM141.043 14.355h.068l.069-.023.068-.046.046-.045.045-.069.023-.068v-.137l-.023-.068-.045-.068-.046-.046-.068-.045-.069-.023h-.136l-.068.023-.069.045-.045.046-.046.068-.023.069v.136l.023.069.046.068.045.045.069.046.068.023h.068zM81.405 14.218h.069l.068-.023.045-.045.046-.069.023-.045v-.137l-.023-.045-.046-.046-.045-.045-.068-.023-.069-.023-.068.023-.046.023-.045.045-.046.046-.022.045-.023.069.023.068.022.045.046.069.045.045.046.023h.068zM194.92 18.226h.068l.091-.023.046-.046.068-.068.046-.068.023-.069v-.158l-.023-.07-.046-.067-.068-.069-.046-.045h-.091l-.068-.023-.091.023h-.068l-.069.045-.045.069-.046.068-.045.068v.16l.045.068.046.068.045.069.069.045.068.023h.091zM115.403 15.698l.045-.023.091-.022.046-.023.046-.069.045-.045.023-.068.023-.091-.023-.046-.023-.068-.045-.069-.046-.045-.046-.046-.091-.022h-.136l-.069.022-.045.046-.046.045-.045.069-.023.068-.023.046.023.09.023.069.045.046.046.068.045.023.069.022.091.023zM91.652 16.905h.023l.069-.023.022-.023.046-.045.023-.046v-.091l-.023-.045-.046-.023-.023-.046-.068-.022h-.091l-.045.023-.046.045-.023.023v.045l-.022.046.022.045v.046l.023.046.046.022.045.023h.068zM90.719 18.75h.045l.046-.023.045-.023.023-.046.023-.045v-.091l-.023-.046-.023-.045-.045-.023-.046-.023h-.091l-.045.023-.046.023-.023.045-.022.046v.091l.022.045.023.046.046.023.045.023h.046zM115.403 14.355h.045l.091-.023.046-.046.046-.045.045-.069.023-.068.023-.068-.023-.069-.023-.068-.045-.068-.046-.046-.046-.045-.091-.023h-.136l-.069.023-.045.045-.046.046-.045.068-.023.069-.023.068.023.068.023.069.045.068.046.045.045.046.069.023h.091zM58.657 16.905h.045l.046-.023.046-.023.022-.045.023-.046v-.091l-.023-.045-.023-.023-.045-.046-.046-.022h-.091l-.045.023-.046.045-.045.023v.045l-.023.046.023.045v.046l.045.046.046.022.045.023h.046zM3.892 14.377h.068l.069-.022.045-.046.046-.045.022-.069v-.114l-.022-.068-.046-.046-.045-.045-.069-.023h-.114l-.068.023-.045.045-.023.046-.046.068v.114l.046.069.023.045.045.046.068.022h.046zM59.568 18.75h.045l.046-.023.045-.023.023-.046.023-.045v-.091l-.023-.046-.023-.045-.045-.023-.046-.023h-.091l-.045.023-.046.023-.023.045-.023.046v.091l.023.045.023.046.046.023.045.023h.046zM3.892 16.381h.068l.069-.023.045-.045.046-.046.022-.068v-.114l-.022-.068-.046-.046-.045-.045-.069-.023h-.114l-.068.023-.045.045-.023.046-.046.068v.114l.046.068.023.046.045.046.068.022h.046zM196.81 17.247h.023" stroke="#3C3C3B" stroke-width=".447" stroke-miterlimit="10" stroke-linecap="round" stroke-linejoin="round"/><path d="m117.839 19.228-.068-.023-.068-.023-.069-.068-.022-.069-.046-.045-.023-.091v-.159l.046-.069.045-.068.046-.046.045-.045.114-.046M59.522 19.706v-.387M59.75 17.975l.068-.364M191.163 18.226h-.091l-.068-.023-.069-.046-.068-.068-.023-.068-.023-.069-.022-.068.022-.09.023-.07.046-.09M117.43 19.364l-.069-.09-.068-.092-.023-.114-.023-.114-.022-.113.022-.114.023-.091.046-.114.045-.091.137-.137M196.833 17.884h-.069l-.068-.023-.068-.045-.046-.046-.045-.045-.023-.069v-.136l.023-.068.022-.069.046-.045.046-.046.068-.023.091-.022M118.021 18.476l.069.023.068.023.068.068.046.046.046.068.022.091v.068l-.022.069-.023.09-.023.07-.068.045-.046.068-.137.023" stroke="#3C3C3B" stroke-width=".447" stroke-miterlimit="10" stroke-linecap="round" stroke-linejoin="round"/><path d="m118.021 18.157.137.023.091.046.091.045.091.069.069.09.068.092.046.114.022.09v.228l-.022.114-.046.091-.046.091-.068.114M69.36 14.286l.045-.045.023-.023.068-.023h.091l.046.023.045.068M40.144 14.286l.045-.045.023-.023.046-.023h.113l.046.023.046.068M54.763 14.286l.023-.045.045-.023.046-.023h.091l.045.023.069.068M111.964 14.286l.023-.045.046-.023.045-.023h.091l.046.023.068.068M69.678 14.423l-.023.023-.045.045-.046.023h-.091l-.045-.045-.069-.046M40.463 14.423l-.023.023-.046.045-.045.023h-.114l-.023-.045-.068-.046M55.082 14.423l-.046.023-.023.045-.045.023h-.114l-.045-.045-.046-.046M112.283 14.423l-.045.023-.023.045-.068.023h-.092l-.045-.045-.046-.046M192.028 16.996V17.133h-.022v.045l-.023.023v.023l-.023.023v.022l-.023.023v.023l-.023.023v.022h-.022l-.023.023v.023h-.023l-.023.023v.023h-.022l-.023.022h-.023v.023h-.023v.023h-.023l-.022.023h-.046v.022h-.045v.023h-.046l-.023.023h-.045l-.023.023h-.068v.023H191.254l-.023.022H191.072l-.023-.022H190.935l-.023-.023h-.068v-.023h-.068v-.023h-.046l-.022-.023h-.046v-.022h-.046v-.023h-.022l-.023-.023h-.023v-.023h-.023v-.022h-.022l-.023-.023-.023-.023v-.023h-.023v-.023h-.022v-.022h-.023v-.023h-.023v-.046h-.023v-.045h-.023v-.046h-.022v-.068h-.023V16.996" stroke="#3C3C3B" stroke-width=".447" stroke-miterlimit="10" stroke-linecap="round" stroke-linejoin="round"/><path d="M192.165 16.518v.046h-.023V16.677h-.023v.091h-.023v.046h-.022v.023l-.023.023v.022h-.023v.023l-.023.023h-.022v.023l-.023.022-.023.023-.023.023h-.023v.023h-.022v.022h-.023l-.023.023-.023.023h-.022l-.023.023-.023.023h-.023l-.022.022h-.069v.023h-.045l-.023.023h-.046v.023H191.391v.022H191.254l-.023.023H191.072l-.023-.023H190.912v-.022h-.091l-.023-.023h-.045V17.2h-.046l-.022-.023h-.069v-.023h-.045v-.022h-.023l-.023-.023h-.023l-.022-.023-.023-.023-.023-.022-.023-.023h-.022v-.023h-.023l-.023-.023v-.022h-.023v-.023h-.022v-.023h-.023v-.046h-.023v-.022l-.023-.023v-.023l-.023-.023v-.022l-.022-.023v-.046l-.023-.022V16.518" stroke="#3C3C3B" stroke-width=".447" stroke-miterlimit="10" stroke-linecap="round" stroke-linejoin="round"/><path d="M191.983 15.516h.022l.023.023.023.023v.022h.023v.046h.022v.045l.023.023v.046l.023.023V15.88h.023v.069l-.023.022v.092l-.023.022v.091h-.023v.046h-.022v.023l-.023.022-.023.023v.023h-.023v.023l-.022.023-.023.022-.023.023v.023h-.023v.023h-.045v.022h-.023l-.023.023h-.023v.023h-.022l-.023.023h-.023v.023h-.023l-.022.022h-.023l-.023.023h-.046l-.022.023h-.069l-.022.023h-.069l-.022.022H191.231l-.023.023H191.095l-.023-.023H190.912l-.022-.022h-.069v-.023H190.707v-.023h-.022l-.023-.023h-.046v-.022h-.022l-.023-.023h-.023l-.023-.023h-.023v-.023h-.022l-.023-.023-.023-.022h-.023l-.022-.023v-.023h-.023v-.023h-.023l-.023-.023v-.022h-.022v-.023h-.023v-.046h-.023v-.022l-.023-.023v-.023h-.023v-.068h-.022v-.069h-.023V15.79l.023-.022v-.069h.022v-.023l.023-.022v-.023l.023-.023v-.023h.023v-.045h.023v-.023h.022" stroke="#3C3C3B" stroke-width=".447" stroke-miterlimit="10" stroke-linecap="round" stroke-linejoin="round"/><path d="m191.983 15.72.023.024v.045l.022.023V16.04l-.022.023v.045l-.023.023v.045h-.023v.023l-.023.023v.045h-.023l-.022.023v.023h-.023l-.023.023-.023.023-.022.022-.023.023h-.023v.023h-.023v.023h-.045l-.023.022h-.023v.023h-.045l-.023.023h-.023l-.023.023h-.045l-.023.023h-.068v.022H191.231l-.022.023H191.072v-.023H190.935l-.023-.022h-.068v-.023h-.068v-.023h-.046l-.022-.023h-.023l-.023-.023h-.023v-.022h-.045l-.023-.023h-.023v-.023h-.023l-.022-.023v-.023h-.023l-.023-.022v-.023h-.023v-.023l-.022-.023h-.023v-.022l-.023-.023v-.023h-.023v-.045h-.023v-.046l-.022-.023v-.045h-.023V15.835l.023-.023v-.068l.022-.023" stroke="#3C3C3B" stroke-width=".447" stroke-miterlimit="10" stroke-linecap="round" stroke-linejoin="round"/><path d="M190.366 16.2v-.024h.023M191.937 16.176v.023h.023M75.986 26.492l.16-.023.136-.023.136-.045.137-.069.137-.09.114-.092.09-.114.092-.114.068-.136.046-.137.022-.16.023-.159-.023-.136-.022-.16-.046-.136-.068-.137-.091-.114-.092-.114-.113-.113-.137-.069-.137-.068-.136-.046-.137-.045h-.319l-.136.045-.137.046-.137.068-.136.069-.091.113-.114.114-.068.114-.069.137-.068.136-.023.16V25.49l.023.16.068.136.069.136.068.114.114.114.09.091.137.091.137.069.137.045.136.023.16.023zM117.817 18.408l.022.023.023.045M118.021 18.476v-.023l.023-.045M118.021 18.157l.023.023.023.046.023.045v.046l-.046.09M117.885 18.34l.023.045.022.091M117.885 18.34l-.023-.023v-.046l.023-.023.023-.022h.045l.023.023h.023l.022.022v.023l-.022.046M117.93 18.476l.023-.045.046-.091M118.044 19.25l.661.16M118.044 19.25l-.023-.022M118.021 19.319l.661.182M118.021 19.319h-.022l-.023-.023-.023-.068M118.705 19.41l-.023.091M117.839 19.228l-.022.022M117.338 19.387l.479-.137M117.839 19.319l-.478.136M117.93 19.228v.045l-.022.023-.069.023M117.338 19.387l.023.068M5.805 15.584l-.365.205M5.099 15.584v-.432M5.099 15.152l.341-.182M5.44 14.97l.365.182M5.805 15.152v.432M5.44 15.79l-.341-.206M5.805 14.24l-.365.206M5.099 14.24v-.41M5.44 14.446 5.1 14.24M120.845 14.24l-.364.206M120.139 14.24v-.41M120.139 13.83l.342-.204M120.481 13.626l.364.205M120.845 13.83v.41M120.481 14.446l-.342-.205M141.408 15.584l-.365.205M140.679 15.584v-.432M141.043 15.79l-.364-.206M144.527 15.584v-.022M4.803 17.155l-.023-.045v-.023l.023-.045M4.894 17.042v.114M146.69 16.29l-.273.16M146.167 16.29v-.068M146.69 15.994v.296M146.417 16.45l-.25-.16M191.55 18.09l-.387.25M190.753 18.09v-.433M190.753 17.657l.068-.046M191.55 17.657v.432M191.163 18.34l-.41-.25" stroke="#3C3C3B" stroke-width=".447" stroke-miterlimit="10" stroke-linecap="round" stroke-linejoin="round"/><path d="m119.183 19.273-.182.114-.183.114-.205.068-.204.069-.205.045h-.456l-.205-.023-.227-.068-.205-.068-.183-.091-.227-.16M194.214 20.73l.046-.022h.091l.023.023M194.374 20.73l.113-.022h.091l.114.023M194.692 20.73l.046-.022h.068l.046.023M194.374 20.89l-.046.023-.023.023-.045-.023-.046-.023M194.692 20.89l-.091.023h-.114l-.113-.023M194.852 20.89l-.046.023-.045.023-.023-.023-.046-.023M120.845 15.584l-.364.205M120.139 15.584v-.432M120.139 15.152l.342-.182M120.481 14.97l.364.182M120.845 15.152v.432M120.481 15.79l-.342-.206M4.962 16.632v-.25M4.962 16.29v-.068M5.554 16.381v.25M5.554 16.632h-.592M4.962 16.381h.592M5.554 16.29h-.592M145.233 14.24l-.341.206M144.527 14.24v-.41M144.527 13.83l.365-.204M144.892 13.626l.341.205M145.233 13.83v.41M144.892 14.446l-.365-.205M59.568 19.638l-.023-.069v-.09l.023-.092" stroke="#3C3C3B" stroke-width=".447" stroke-miterlimit="10" stroke-linecap="round" stroke-linejoin="round"/><path d="m59.568 19.752-.023-.023v-.046l.023-.045M59.568 19.387l-.023-.023v-.022l.023-.069M141.408 14.24l-.365.206M140.679 14.24v-.41M140.679 13.83l.364-.204M141.043 13.626l.365.205M141.407 13.83v.41M141.043 14.446l-.364-.205M81.678 14.127l-.273.16M81.132 14.127v-.319M81.132 13.808l.273-.136M81.405 13.671l.273.137M81.678 13.808v.319M81.405 14.286l-.273-.159M195.307 18.09l-.387.25M194.51 18.09v-.433M194.51 17.657l.41-.251M194.92 17.406l.387.25M195.307 17.657v.432M194.92 18.34l-.41-.25M115.744 15.584l-.341.205M115.038 15.584v-.432M115.038 15.152l.365-.182M115.403 14.97l.341.182M115.744 15.152v.432M115.403 15.79l-.365-.206M59.773 17.907v-.068l.022-.091.023-.069M59.773 17.907v.023l-.023.045v.023l.023.046M59.84 17.565v.023l-.022.023v.068M91.835 16.837l-.183.136M91.425 16.837v-.228M91.425 16.609l.228-.137M91.835 16.609v.228M91.653 16.973l-.228-.136M90.924 18.681l-.205.137M90.514 18.681v-.228M90.514 18.453l.205-.136M90.719 18.317l.205.136M90.924 18.453v.228M90.719 18.818l-.205-.137M115.744 14.24l-.341.206M115.038 14.24v-.41M115.038 13.83l.365-.204M115.403 13.626l.341.205M115.744 13.83v.41M115.403 14.446l-.365-.205M58.862 16.837l-.205.136M58.452 16.837v-.228M58.452 16.609l.205-.137M58.657 16.472l.205.137M58.862 16.609v.228M58.657 16.973l-.205-.136M4.188 14.286l-.296.16M3.642 14.286v-.296M3.642 13.99l.25-.16M3.892 13.83l.296.16M4.188 13.99v.296M3.892 14.446l-.25-.16M146.69 14.286l-.182.114M146.167 13.99l.25-.16M146.417 13.83l.273.16M146.69 13.99v.296M59.773 18.681l-.205.137M59.363 18.681v-.228M59.363 18.453l.205-.136M59.568 18.317l.205.136M59.773 18.453v.228M59.568 18.818l-.205-.137M4.188 16.29l-.296.16M3.642 16.29v-.296M3.642 15.994l.25-.16M3.892 15.835l.296.16M4.188 15.994v.296M3.892 16.45l-.25-.16M191.482 17.611l.068.046M5.554 16.222v.068M191.687 17.884l-.023.091-.023.114-.045.069-.069.09-.091.046-.068.068-.114.023-.091.023-.114-.023-.091-.023-.091-.068-.068-.045-.069-.091-.068-.069-.023-.114v-.09M117.839 19.228l-.068-.023-.068-.023-.046-.068-.045-.069-.023-.045-.023-.091-.023-.068.023-.069.023-.09.045-.046.046-.069.045-.045.137-.046M118.021 18.476l.069.023.068.046.046.045.068.068.023.046.023.091v.137l-.023.09-.046.046-.045.069-.046.045-.137.046M175.724 20.275V20.412h-.023v.068h-.023v.023M175.678 17.224h.023v.068h.023V17.43M148.444 6.248h-.068M148.376 6.316v-.068M148.444 6.316h-.068M69.36 14.286h.022v-.022h.023v-.023h.091l.023-.023h.022v.023h.092v.023h.045v.022M69.633 14.286l.022.046M69.678 14.286h-.045M69.405 14.332v-.046M69.405 14.286h-.046M69.678 14.423h-.023l-.022.023h-.023l-.023.023H69.451v-.023h-.046v-.023h-.046M40.144 14.286h.023v-.022h.022v-.023h.091v-.023h.046v.023h.091v.023h.023v.022h.023M40.417 14.286v.046M40.462 14.286h-.045M40.19 14.332v-.046M40.19 14.286h-.046M40.463 14.423h-.046v.023h-.023v.023H40.235v-.023h-.046v-.023h-.045M54.763 14.286h.023v-.022l.023-.023h.091v-.023h.045v.023h.091v.023h.023v.022h.023M55.013 14.286l.023.046M55.082 14.286h-.069M54.786 14.332l.022-.046M54.809 14.286h-.046M55.082 14.423h-.046v.023h-.045v.023H54.83v-.023h-.045v-.023h-.023M111.964 14.286v-.022h.023l.023-.023h.091v-.023h.023l.023.023h.091v.023h.022v.022h.023M112.238 14.286v.046M112.283 14.286h-.045M111.987 14.332l.023-.046M112.01 14.286h-.046M112.283 14.423h-.045v.023h-.046v.023H112.055l-.022-.023h-.023l-.023-.023h-.023M69.655 14.377l-.022.046M69.633 14.423h.045M40.417 14.377v.046M40.417 14.423h.045M55.036 14.377l-.023.046M55.013 14.423h.069M112.238 14.377v.046M112.238 14.423h.045M69.405 14.423v-.046M69.36 14.423h.045M40.19 14.423v-.046M40.144 14.423h.045M54.808 14.423l-.022-.046M54.763 14.423h.046M112.01 14.423l-.023-.046M111.964 14.423h.046M195.626 16.655l-.023-.091M194.784 21.027h-.023M4.962 17.087v.023M147.192 16.973h-.023M194.761 21.027h-.456M4.552 16.86v.113M4.643 16.86v.113M3.163 16.86v.113M3.254 16.973v-.113M3.163 16.973h.091M4.552 16.973h.091M4.598 19.068h.068M3.209 19.068H3.14M147.078 16.86v.113M147.169 16.86v.113M145.666 16.86v.113M145.78 16.973v-.113M145.666 16.973h.114M147.078 16.973h.091M147.191 16.973v-3.666M148.125 16.973h.159M147.191 16.973h.183M148.284 13.307v3.666M148.125 13.307h.159M58.953 17.11h.205M58.953 17.224v-.114M59.158 17.224h-.205M59.886 18.112l-.022.205M59.978 18.34l-.114-.023M60.023 18.135l-.046.205M3.14 19.068v-5.76M2.048 19.068h.182M2.981 19.068h.16M2.048 13.307v5.761M2.048 13.307h.182M91.356 17.11h-.227M91.356 17.224v-.114M91.129 17.224h.227M90.4 18.112l.045.205M195.581 20.526v-.25M147.283 13.307h.091M2.981 13.307h.069M175.314 17.178h15.006M195.58 20.526h-20.266M138.402 17.178h-7.629M130.773 17.178h-9.131M116.906 20.275v.25M130.773 20.526h7.629M116.906 20.526h13.867M175.314 17.178H147.92M175.678 20.503H175.496v.023H175.314M175.314 17.178H175.496v.023H175.656l.022.023M138.402 20.526h36.912M145.848 17.178h-7.446M198.951 17.042v-.023l-.023-.023.023-.023h.091l.068.023.091.023.114.045.068.091.091.069.046.114.045.114.023.113v.137l-.023.114M200.681 18.818h-.045l-.046-.023-.045-.046-.023-.045v-.046l.023-.09" stroke="#3C3C3B" stroke-width=".447" stroke-miterlimit="10" stroke-linecap="round" stroke-linejoin="round"/><path d="M198.928 17.042h.091l.114.022.091.046.068.068.114.137M195.603 17.042h-1.275M195.99 17.042h-.387M196.15 17.042h-.16M198.928 17.042h-1.662M193.85 17.042h-1.571M189.91 17.042v.25M190.001 17.042h-.091M196.833 17.042h-.683M194.168 16.95h-.182M192.074 16.882h-.023M190.275 16.882h-.068M194.738 13.9l.182-.024.182-.022.16.023.182.045.182.045.159.069.137.114.137.09.113.137.114.137.091.16.069.159.045.16.046.25M194.738 13.9l-2.96.705M194.852 15.152h.182l.091.022.091.046.068.045.092.069.045.068.046.091.022.069.023.113M195.512 15.675l.023.524M196.582 16.13l-.045-.887M196.605 16.245l-.022-.069M196.583 16.176v-.045M195.694 16.791l-.022-.023M195.603 16.564l-.045-.16-.023-.205M195.671 16.768l-.068-.204M192.142 15.79l2.71-.638M196.833 16.586l-.228-.341M198.199 16.95h-.023l-.022-.022-.023-.023v-.023M195.581 16.882v.023l-.023.023-.046.023M190.024 16.996l.023-.045.045-.023.023-.046h.091M192.073 16.882h.046l.046.023.045.046.023.045M190.024 16.996v.023l-.023.023M192.278 17.042h-.022l-.023-.046M194.442 16.95h-.274M198.518 16.95h-.137M198.381 16.95h-1.115M196.036 16.95h-.137M195.899 16.95h-.136M195.763 16.95h-.046M195.717 16.95h-1.275M198.518 16.95l.046.023.022.023.023.023M194.168 16.95l.046.023.023.023.045.023M193.873 17.019l.022-.023.046-.023.045-.022M196.833 16.95h-.797M193.873 17.019l-.023.023M198.654 17.042l-.045-.023M194.328 17.042l-.046-.023M4.825 13.535v2.482M145.506 14.696v-1.161M4.803 16.86h.09M4.803 16.768h.09M145.666 14.696v-1.389M145.575 14.696v-1.389M145.78 14.674v-1.367M145.666 14.696v-1.389M90.97 17.11h.022M90.97 17.224h-.502M90.468 17.224h-.022M90.468 17.11h.501M90.992 17.224h-.023M90.446 17.11h.022M91.197 18.75l-.046.068-.045.045-.069.046-.136.023M2.139 19.273h.09M2.23 19.273v-.205M2.139 19.068v.205M84.434 14.355v-.069M90.286 18.135l-.137-.752M84.684 14.286l.023.046-.023.091M84.434 14.423v-.068M84.684 14.377h-.227M84.684 14.332h-.227M84.457 14.377h-.023M84.457 14.332h-.023M84.707 14.377h-.023M84.707 14.332h-.023M90.24 17.93h-.022M90.24 17.953v.022M4.917 17.11v-.296M144.641 15.584l-.023-.022M146.189 14.104l.023-.068.023-.046.046-.045.068-.046h.114l.068.023.046.023.045.045.023.069.023.068v.045l-.023.069-.023.045-.045.046-.069.045M146.417 16.381h-.045l-.069-.023-.045-.045-.046-.046-.023-.09M84.411 14.286l.023-.045.046-.023.045-.023h.114l.023.023.068.068M84.73 14.423l-.046.023-.022.045-.046.023h-.114l-.045-.045-.046-.046M4.803 17.042l-.023-.046.023-.136M4.803 16.86l-.023-.046v-.023l.023-.023M4.894 16.86v.182M4.894 16.768v.092M90.013 16.609v.046M91.652 16.472l.183.137M44.31 14.127l-.272.16M43.764 14.127v-.319M43.764 13.808l.274-.136M146.508 15.88l.182.114M144.596 15.607l-.069-.023M146.167 14.059v-.069" stroke="#3C3C3B" stroke-width=".447" stroke-miterlimit="10" stroke-linecap="round" stroke-linejoin="round"/><path d="m84.411 14.286.023-.022h.023v-.023h.091v-.023h.045v.023h.069l.022.023h.023v.022h.023M84.662 14.286l.022.046M84.73 14.286h-.068M84.457 14.332v-.046M84.457 14.286h-.046M84.73 14.423h-.046v.023h-.045v.023H84.48v-.023h-.023v-.023h-.046M84.684 14.377l-.022.046M84.662 14.423h.068M84.457 14.423v-.046M84.411 14.423h.046M4.962 17.087v-.273M90.309 18.34l.136-.023M90.286 18.135l.023.205M145.484 4.54v.091M145.484 3.584v.09M144.072 4.062v.091M143.138 4.153v-.09M4.871 4.631v-.09M4.871 3.675v-.091M6.26 4.153v-.09M7.217 4.062v.091M145.484 4.54h-.365M143.662 4.062h-.501M143.161 4.062h-.023M5.19 4.54H4.87M7.194 4.062H6.67M7.217 4.062h-.023M145.484 4.631h-.365M139.04 4.609V3.607M143.389 4.814v-.046M143.389 3.47v-.046M143.662 4.153h-.501M143.161 4.153h-.023M5.19 4.631H4.87M11.293 4.609V3.607M6.943 4.814v-.046M6.943 3.47v-.046M7.194 4.153H6.67M7.217 4.153h-.023M145.484 3.675h-.365M144.072 4.062h-.41M5.19 3.675H4.87M6.67 4.062h-.41M145.484 3.584h-.365M144.072 4.153h-.41M5.19 3.584H4.87M6.67 4.153h-.41M139.04 3.607v-.023M11.293 3.584v.023M139.04 4.631V4.61M143.389 3.584v.478M11.293 4.609v.022M6.943 3.584v.478M143.389 4.153v.478M6.943 4.153v.478M143.389 4.722h.956M145.119 3.675h-.273M6.943 4.722h-.956M5.19 3.675h.296M143.389 4.814h.956M145.119 3.584h-.273M6.943 4.814h-.956M5.19 3.584h.296M144.778 4.563l.068-.023M5.554 4.563l-.068-.023M144.823 4.631h.023M5.532 4.631h-.046M144.846 4.54h.273M144.345 3.516h-.956M5.486 4.54H5.19M5.987 3.516h.956M144.846 4.631h.273M144.345 3.424h-.956M5.486 4.631H5.19M5.987 3.424h.956M144.778 3.675l-.41-.16M5.554 3.675l.41-.16M144.823 3.584l-.432-.16M5.531 3.584l.41-.16M144.368 4.7l-.023.022M5.964 4.7l.023.022M144.391 4.79l-.046.024M5.941 4.79l.046.024M144.368 4.7l.41-.137M5.964 4.7l-.41-.137M144.391 4.79l.432-.159M5.941 4.79l-.41-.159M144.846 3.675h-.068M144.846 3.584h-.023M144.345 3.424h.046M144.345 3.516h.023M139.108 3.424h-.023l-.023.046-.022.023v.091M139.04 4.631v.091l.022.046.023.023.023.023M143.389 3.584V3.47M143.389 4.768v-.137M5.486 3.675h.068M5.486 3.584h.046M5.987 3.424H5.94M5.987 3.516h-.023M11.224 3.424h.023l.023.046v.046l.023.045v.023M11.293 4.631v.023l-.023.046v.068l-.023.023-.023.023M6.943 3.584V3.47M6.943 4.768v-.137M6.83 3.766h-.342M6.488 3.766h-.069M6.488 4.45h-.069M6.488 4.45h.341M6.943 4.45H6.83M143.502 3.766h.342M143.844 3.766h.091M143.844 4.45h.091M143.844 4.45h-.342M143.503 4.45h-.114M6.42 3.994h-.638M5.782 3.994v.25M5.782 4.244h.638M6.83 3.698h-.342M6.488 3.698h-.069M6.488 4.517h-.069M6.488 4.517h.341M6.943 4.517H6.83M143.935 3.994h.615M144.55 3.994v.25M144.55 4.244h-.615M143.502 3.698h.342M143.844 3.698h.091M143.844 4.517h.091M143.844 4.517h-.342M143.503 4.517h-.114M6.943 3.766H6.83M143.503 3.766h-.114M6.943 3.698H6.83M143.503 3.698h-.114M6.42 4.244v.114M143.935 4.244v.114M6.42 3.857v.137M143.935 3.857v.137M4.871 4.358v-.5M145.484 4.358v-.5M4.871 4.517v-.159M4.871 3.857v-.16M6.42 4.358v.16M6.42 3.698v.16M145.484 4.517v-.159M145.484 3.857v-.16M143.935 4.358v.16M143.935 3.698v.16M90.195 17.725v-.023.023zm0 0v.068l.023.046v.091l.023.023v.022-.023M60.046 17.975v-.023l.023-.022v-.046l.022-.045V17.702M4.871 4.517H6.42M145.484 4.517h-1.549M6.42 3.698H4.87M143.935 3.698h1.549M139.108 3.424h4.281M11.224 3.424h-4.28M143.389 4.814h-4.281M6.943 4.814h4.281M143.047 15.038h.046M143.252 15.243h-.159M143.252 15.038h.16M143.093 15.243h-.046M143.093 15.038h.159M143.412 15.243h-.16M143.047 15.243h-.023l-.045-.023-.023-.023v-.023l-.023-.022.023-.046v-.023l.023-.022.045-.023h.023M143.32 15.152v.045h-.022v.046h-.069v-.023h-.022v-.023h-.023V15.083h.023v-.022h.022v-.023h.069v.045h.022v.069zM148.808 16.586l.046.592M148.785 16.222l.023.364M148.785 16.063v.159M148.489 16.108l-.022-.137M148.49 16.245l.045.364M148.49 16.245v-.137M148.785 16.063l-.022-.137M148.74 15.516l.023.41M148.467 15.971v-.182M148.581 17.178l-.046-.569M143.434 3.994h.479M6.898 4.04h-.479M143.913 4.04h-.479M6.42 3.994h.478M143.434 4.04v-.023h-.022v-.023h.022M6.92 3.994v.045h-.022M143.912 4.176h.046v-.023M6.42 4.04l-.023.022h-.023M143.958 4.062l-.023-.023h-.023M6.374 4.153l.023.023h.023M143.912 3.994h.023l.046.023.022.022v.023M6.42 4.244l-.023-.023H6.35l-.023-.045v-.023M144.003 4.153v.023l-.022.045-.046.023h-.023M6.328 4.062V4.04l.023-.022.046-.023h.022M16.462 14.15l.296.022M12.067 14.15h.341M143.434 4.176h.479M6.898 4.244h-.479M143.913 4.244h-.479M6.42 4.176h.478M143.434 4.221h-.022V4.2h.022v-.023M6.898 4.176v.023h.022v.022M143.434 4.04h-.045M6.943 4.04h-.045" stroke="#3C3C3B" stroke-width=".447" stroke-miterlimit="10" stroke-linecap="round" stroke-linejoin="round"/><path d="M143.434 4.04v-.023h-.022v-.023h.022M6.92 3.994v.045h-.022M6.943 4.176h-.045M143.434 4.176h-.045M143.434 4.221h-.022V4.2h.022v-.023M6.898 4.176v.023h.022v.022M143.708 4.404h.227M143.935 3.812h-.227M6.42 4.404h.204M6.624 3.812H6.42M4.962 16.632h-.205M6.283 16.358l-.046.023-.136.069-.16.09-.182.046-.182.046h-.023M145.302 15.584l-.296.114-.433.182-.387.182-.251.137-.159.114-.137.091-.114.091-.045.069-.023.068-.023.023v.022M143.298 16.404l.022-.114v-.068" stroke="#3C3C3B" stroke-width=".447" stroke-miterlimit="10" stroke-linecap="round" stroke-linejoin="round"/><path d="m143.548 16.495-.045.137-.023.09-.046.092-.068.023h-.091l-.023-.023-.045-.023-.023-.068v-.068l.045-.137.046-.091.137-.16.182-.136.227-.137.251-.136.341-.16.319-.136M16.166 13.535v.068M134.941 13.535v.068M111.19 13.535v.068M39.916 13.535v.068M145.689 14.97h.068M15.414 13.603v-.068M134.189 13.603v-.068M110.439 13.603v-.068M39.165 13.603v-.068M145.757 15.334h-.068M90.355 17.93l.159-.023M90.332 17.702l.136-.023M148.284 13.125V5.246M2.048 13.125V5.246M15.528 13.603v.137M15.665 13.603v.137M15.892 13.603v.137M16.03 13.603v.137M134.303 13.603v.137M134.417 13.603v.137M134.667 13.603v.137M134.781 13.603v.137M110.552 13.603v.137M110.667 13.603v.137M110.917 13.603v.137M111.031 13.603v.137M39.279 13.603v.137M39.415 13.603v.137M39.666 13.603v.137M39.78 13.603v.137M4.803.783h140.726M4.803 3.265h.068M4.803 3.903h.068M4.803 4.313h.068M4.803 4.95h.068M4.803 13.535h56.313M4.803 7.751h61.186M4.803 8.252h60.39M4.803 8.89h59.57M4.803 9.322h59.114M4.803 9.96h58.5M4.803 13.262H61.23M145.506 15.265h.16M145.506 15.38h.16M145.506 14.901h.16M145.506 15.015h.16M2.776 4.79V3.448M2.184 4.563v-.91M2.161 4.563v-.91M1.91 4.79V3.448M147.533 4.79V3.448M148.148 4.563v-.91M148.171 4.563v-.91M148.421 4.79V3.448M146.645 13.558v-.091M146.645 16.723v.091M148.284 2.969V.783M2.048 2.969V.783M7.444 3.265h135.444M11.293 3.903H139.04M11.293 4.313H139.04M7.444 4.95h135.444M63.849 13.535h10.998M84.297 7.751h61.232M85.094 8.252h60.435M69.883 8.89h10.52M68.494 9.322h13.298M67.196 9.96H83.09M63.985 13.262h22.316M145.484 3.265h.045M145.484 3.903h.045M145.484 4.313h.045M145.484 4.95h.045M77.124 13.535h9.314M85.914 8.89h59.615M86.37 9.322h59.159M86.984 9.96h58.545M89.057 13.262h56.472M89.17 13.535h56.359M58.27 19.16v.227M148.102.783v2.664M58.27 21.482h1.48M2.23.783v2.664M145.597.783v2.323M114.333 19.16H90.537M4.734.783v2.323M148.102 4.79v8.517M2.23 4.79v8.517M145.597 3.197v1.821M88.077 19.16H86.12M4.734 3.197v1.821M145.597 5.132v8.175M65.875 19.16H62.21M4.734 5.132v8.175M58.27 19.16h-23M148.216.783h-.114M148.216.783h.069M2.139 13.193v-.068M2.047 13.535l-.022.023v.022h-.023l-.023-.022v-.023M1.979 13.535v-.296M2.048 13.262v.273M1.979 13.239v-.023h.023l.023-.023M2.025 13.193h.114M2.184 13.193v-.068M2.116.783h-.068M145.529 3.265V3.22M145.529 4.313v-.41M145.529.783v.068M145.529 3.903v-.638M145.529 4.95v-.637M145.529 7.728V5.11M145.529 7.728v.023M145.529 13.216V9.96M145.529 13.216v.046M145.529 13.49v.045M145.529 13.49v-.228M145.529 8.252v-.501M145.529 8.89v-.638M145.529 9.322V8.89M145.529 9.96v-.638M59.886 20.139v-.046M148.216 13.125h-.114M148.216 13.125h.069M2.116 13.125h-.068M4.803 3.265V3.22M4.803 4.313v-.41M4.803.783v.068M4.803 3.903v-.638M4.803 4.95v-.637M4.803 7.728V5.11M4.803 7.728v.023M4.803 13.216V9.96M4.803 13.216v.046M4.803 13.49v.045M4.803 13.49v-.228M4.803 8.252v-.501M4.803 8.89v-.638M4.803 9.322V8.89M4.803 9.96v-.638M60.091 26.492v-6.399M148.216 13.193v-.068M148.353 13.535v-.296M148.307 13.262v.273M148.353 13.535v.045h-.046v-.045M148.307 13.193l.023.023h.023v.023M148.307 13.193h-.091M148.148 13.193v-.068M2.23 13.193h-.046M2.23 13.262h-.182M2.23.783h-.114M15.414 13.603h.752M134.189 13.603h.752M110.439 13.603h.751M39.165 13.603h.751M145.757 14.97v.364M2.23 13.125h-.114M148.102 13.193h.046M148.102 13.262h.205M145.529 3.106V.85M145.529 5.018V4.95M4.803 3.106V.85M4.803 5.018V4.95M58.27 19.387h1.252M58.27 19.16h1.412M90.856 19.16v.478M33.199 16.222v.341M148.102.783h-2.368M122.12 16.222v.341M58.27 21.482v-.5M2.23.783h2.39M90.036 17.474l.136.774M60.114 18.248l.137-.774M145.597 13.307h.137M33.199 16.564v.5M4.62 13.307h.114M145.597.783h.137M122.12 16.564v.5M58.27 20.981v-1.594M4.62.783h.114M58.611 16.358h1.708M145.529.783h.069M4.803.783h-.069M91.675 16.358h.091l.069.023.045.046.069.045.045.069.023.068v.068M90.856 19.638V21.3M147.374 13.307h-1.64M2.981 13.307h1.64M89.967 16.358h1.708M145.575 13.307h-.046M4.757 13.307h.046M89.17 20.047V21.3M145.802 13.649v-.069l.046-.045.023-.046h.045l.046-.022M145.894 13.649v-.046l.022-.023.023-.022h.023M145.962 16.814h-.046l-.045-.023-.023-.045-.046-.046v-.068M145.962 16.723h-.023l-.023-.023-.022-.023v-.045M4.871 5.314v.228M4.871 5.246v.068M4.871 4.996v-.069M4.871 3.288v.41M4.871 2.969v.16M4.871 2.9v.069M4.871 2.696V2.9M145.484 5.314v.228M145.484 5.314v-.068M145.484 4.927v.069M145.484 3.288v.296M145.484 2.969v.16M145.484 2.969v-.068M145.484 2.696V2.9M144.459 3.288h-.023M144.436 4.927h.023M147.692 4.814v.045h-.022v.023h-.023v.023h-.046M147.693 3.424v.023M147.601 3.31h.023v.023h.046v.023h.022v.068M146.144 3.106l1.457.205M146.099 2.992l-1.64.296M146.144 5.223h-.023l-.022-.022M144.459 4.927l1.64.274M147.601 4.905l-1.457.205M5.896 3.288h-.023M5.873 4.927h.023M2.73 4.905h-.045v-.023h-.023v-.023H2.64v-.045M2.64 3.424v.023M2.64 3.424v-.068h.022v-.023h.046v-.022h.023M4.188 3.106l-1.457.205M4.234 2.992l1.64.296M4.234 5.2v.023h-.046M5.873 4.927l-1.64.274M2.73 4.905l1.458.205M2.594 3.447H2.39M1.91 3.447h.251M2.594 3.447h.182M147.738 3.447h.205M148.421 3.447h-.25M147.738 3.447h-.205M146.212 13.467h.433M146.212 16.814h.433M96.958 14.355v-.069M7.444 5.314v.228M7.444 5.246v.068M7.444 5.064v.182M7.444 5.064v-.137M7.444 3.288v.136M7.444 3.288V3.15M7.444 2.969v.182M7.444 2.9v.069M7.444 2.696V2.9M10.518 14.355l.023-.069M25.137 14.355l.023-.069M17.76 15.63l.045-.023.046-.023.045-.022.023-.046.023-.023v-.114l-.023-.045-.023-.023-.045-.046-.046-.022h-.091l-.045.022-.046.046-.023.023-.023.045v.114l.023.023.023.046.046.022.045.023.046.023zM17.76 14.172l.045-.022.046-.023.045-.023.023-.045.023-.023v-.114l-.023-.046-.023-.022-.045-.046-.046-.023h-.091l-.045.023-.046.046-.023.023-.023.045v.114l.023.023.023.045.046.023.045.023.046.022zM125.24 14.355l.023-.069M139.859 14.355l.023-.069M100.009 15.858h.046l.046-.023.022-.023.023-.045v-.069l-.023-.045-.022-.046-.046-.023h-.091l-.023.023-.045.046-.023.045v.069l.023.045.045.023.023.023h.045zM97.846 15.858h.046l.022-.023.023-.023.023-.045.023-.046-.023-.023-.023-.045-.023-.046-.022-.023H97.8l-.045.023-.023.046-.022.045v.069l.022.045.023.023.046.023h.045zM97.846 14.036l.046-.023h.022l.023-.045.023-.046.023-.046-.023-.022-.023-.046-.023-.023-.022-.022-.046-.023-.046.023-.045.022-.023.023-.022.046v.068l.022.046.023.045h.046l.045.023zM100.009 14.036l.046-.023h.046l.022-.045.023-.046v-.068l-.023-.046-.022-.023-.046-.022-.046-.023-.045.023-.023.022-.045.023-.023.046v.068l.023.046.045.045h.023l.045.023zM52.486 14.036l.046-.023h.045l.023-.045.023-.046v-.068l-.023-.046-.023-.023-.045-.022-.046-.023-.046.023-.022.022-.046.023v.16l.046.045h.022l.046.023zM52.486 15.858h.046l.045-.023.023-.023.023-.045v-.069l-.023-.045-.023-.046-.045-.023h-.092l-.022.023-.046.046v.159l.046.023.022.023h.046zM50.323 15.858h.045l.046-.023.023-.023.022-.045v-.069l-.023-.045-.022-.046-.046-.023h-.091l-.045.023-.023.046-.023.045v.069l.023.045.023.023.045.023h.046zM50.323 14.036l.045-.023h.046l.023-.045.022-.046v-.068l-.023-.046-.022-.023-.046-.022-.045-.023-.046.023-.045.022-.023.023-.023.046v.068l.023.046.023.045h.045l.046.023zM142.888 5.314v.228M142.888 5.314v-.068M142.888 5.064v.182M142.888 4.927v.137M142.888 3.288v.136M142.888 3.151v.137M142.888 2.969v.182M142.888 2.969v-.068M142.888 2.696V2.9M144.482 3.402h-.023M143.753 3.402h.706M144.459 3.288h-.706M144.482 3.288h-.023M147.624 3.197h.023v.023h.046v.022h.045v.023h.023v.023l.023.023v.022h.022v.091M147.806 4.814V4.79M147.806 4.814v.068h-.022v.045h-.023v.023h-.023v.023h-.023v.023h-.045v.022h-.046M144.459 4.927h.023M143.753 4.927h.706M144.459 4.836h-.706M144.459 4.836h.023" stroke="#3C3C3B" stroke-width=".447" stroke-miterlimit="10" stroke-linecap="round" stroke-linejoin="round"/><path d="M147.693 4.814v.068h-.023l-.023.023h-.023M147.693 3.424v.023M147.624 3.31h.023v.023h.023v.023h.023v.068M146.167 3.106l1.457.205M146.121 3.106h.046M144.482 3.402l1.639-.296M146.121 2.992l-1.639.296M146.121 2.992h.068M147.624 3.197l-1.435-.205M146.189 5.2l1.435-.182M146.189 5.2l-.022.023h-.046v-.022M144.482 4.927l1.639.274M146.121 5.11l-1.639-.274M146.167 5.11h-.046M147.624 4.905l-1.457.205M5.873 3.402H5.85M6.579 3.402h-.706M5.873 3.288h.706M2.526 3.424v-.068h.022v-.045h.023v-.046h.023v-.023h.023V3.22h.068v-.023h.023M2.526 4.814V4.79M2.708 5.018h-.046v-.022h-.045v-.023h-.023V4.95h-.023v-.023h-.023v-.045l-.022-.023v-.045M6.579 4.927h-.706M5.873 4.836h.706M5.85 4.836h.023M2.708 4.905h-.023v-.023h-.023l-.023-.023v-.023h-.022v-.022M2.617 3.424v.023M2.617 3.424V3.38h.022v-.023h.023v-.023h.023v-.022h.023M4.165 3.106l-1.457.205M4.165 3.106h.046M5.85 3.402l-1.64-.296M4.234 2.992l1.64.296M4.165 2.992h.069M2.708 3.197l1.457-.205M4.165 5.2l-1.457-.182M4.234 5.2H4.21v.023h-.046v-.022M5.873 4.927l-1.64.274M4.21 5.11l1.64-.274M4.21 5.11h-.045M2.708 4.905l1.457.205M2.594 4.79H2.39M2.161 4.79h-.25M2.776 4.79h-.182M147.738 4.79h.205M148.171 4.79h.25M147.533 4.79h.205M145.962 13.649v-.091M145.894 13.649h.068M146.212 13.558h.433M146.736 13.74l.068.068.069.069.022.113.046.16M146.736 13.74l-.045-.046-.046-.045v-.114M146.212 16.723h.433M145.962 16.632h-.068M146.645 16.746v-.069l.023-.068.068-.068M146.941 16.13l-.023.115-.023.09-.045.092-.114.114M146.941 14.15v1.98M4.871 5.11v.136M4.871 3.288V3.22M145.484 5.11v.136M145.484 3.22v.068M146.099 2.992h.045M4.188 2.992h.046M2.366 3.447h-.205M147.966 3.447h.205M2.366 4.79h-.205M147.966 4.79h.205M145.962 16.723v-.091M4.871 4.54v.387M145.484 3.675v.023M147.693 4.79v.024M2.64 4.79v.024M97.209 14.286l.022.046-.022.091M7.444 4.814v.113M10.792 14.286l.023.046-.023.091M25.41 14.286v.137M125.513 14.286l.023.046-.023.091M140.132 14.286v.137M142.888 4.814v.113M147.806 3.447v-.023M147.693 4.79v.024M2.526 3.447v-.023M2.617 4.79v.024M96.958 14.423v-.068M10.541 14.423l-.023-.068M25.16 14.423l-.023-.068M125.263 14.423l-.023-.068M139.882 14.423l-.023-.068M145.484 4.631v.296M145.802 16.632v-2.983M145.894 16.632v-2.983M146.212 16.814h-.25M146.212 16.723h-.25M145.962 13.467h.25M145.962 13.558h.25M143.639 4.927v-.09M6.693 4.836v.091M143.639 3.402v-.114M6.693 3.288v.114M145.848 17.224v-.25M147.92 17.224v-.25M148.376 13.945h-.092M143.753 4.927v-.09M6.579 4.927v-.09M143.753 3.402v-.114M6.579 3.402v-.114M58.042 19.387l.228.023M58.02 19.638l.022-.25M90.218 21.55l-.478.456-.501.455-.524.41-.98.729M61.685 19.843l.456.136.478.16.455.182.433.205.433.227.432.25.456.32M81.314 26.082l-.546.114M58.27 19.66l-.25-.022M71.181 25.33l-.546-.227M81.269 26.332l-.319.069M89.853 21.573l-.5.433-.501.455-.524.41-.638.456M70.953 25.49l-.319-.114M76.26 27.425l-.274.365M73.914 25.604l-.365-.25M75.713 23.258l.273-.364M78.058 25.08l.387.25M76.077 26.993l.182.432M74.323 25.422l-.41.182M75.918 23.668l-.205-.41M77.648 25.262l.41-.182M75.599 26.947l.478.046M74.369 24.966l-.046.456M76.373 23.714l-.456-.046M77.625 25.718l.023-.456M75.348 27.334l.25-.387M73.982 24.693l.387.273M76.623 23.35l-.25.364M77.99 25.99l-.365-.272M75.553 27.744l-.205-.41M73.572 24.898l.41-.205M76.441 22.917l.182.432M78.4 25.786l-.41.205M75.986 27.79l-.433-.046M73.55 25.353l.022-.455M75.986 22.894l.455.023M78.445 25.33l-.046.456M147.92 17.224h-2.072M145.917 13.99h.159M146.076 16.29h-.159M89.239 20.047h.045M89.239 20.047l-.183-.022-.159-.046-.16-.045-.136-.091-.114-.091-.136-.114-.092-.137-.09-.137-.069-.16-.046-.204M86.848 14.537l.273.774.25.797.228.797.182.82.273 1.275M79.106 8.73l.478.046.455.045.433.091.455.114.433.137.433.16.432.159.41.205.41.227.387.25.364.251.365.296.341.296.342.32.319.318.296.364.273.365.25.387.25.387.206.387.205.433.205.569M75.348 8.616l1.275.023 2.482.091M61.07 20.047h-.068" stroke="#3C3C3B" stroke-width=".447" stroke-miterlimit="10" stroke-linecap="round" stroke-linejoin="round"/><path d="m62.232 19-.023.16-.068.159-.069.136-.113.137-.114.114-.114.114-.137.09-.16.046-.158.046-.205.046M62.232 19l.16-.82.181-.797.205-.797.25-.82.41-1.23M63.439 14.537l.16-.433.182-.432.205-.388.227-.41.25-.387.274-.364.296-.364.296-.32.342-.34.341-.297.364-.296.365-.273.387-.228.387-.25.41-.205.433-.182.432-.16.433-.136.433-.114.455-.091.455-.091.615-.046M71.181 8.73l1.275-.068 2.482-.046M75.348 8.616h-.41M90.354 21.778l-.478.456-.5.455-.525.41-1.07.774M90.195 21.596l.16.182M58.133 19.91l.023-.25M58.156 19.66h.114M70.953 25.49l-.319-.114M61.253 20.025l.478.114.478.136.455.182.456.183.433.204.432.228.752.501M81.269 26.332l-.319.069M90.195 21.596l-.5.455-.479.433-.524.41-.956.706M1.387 14.355h.478M148.968 14.355h-.524M1.865 15.812l-.751-.842M148.444 15.812l.774-.842M1.114 14.97l-.068-.046-.023-.091L1 14.764v-.09l.023-.092.045-.068.069-.068.045-.046.091-.023.114-.022M148.968 14.355h.068l.091.045.045.023.069.068.045.069.046.068v.182l-.046.068-.068.091M1.91 2.331h.138M2.048 5.884H1.91M148.284 2.331h.137M148.421 5.884h-.137M64.623 21.983l-1.002-.82M62.801 20.503l-.023-.023M62.187 20.002l-.342-.273M64.623 19.16l.842.683M70.703 24.465l.774.615M146.349 16.176h-.182M146.167 14.104h.182M97.209 14.377h-.251M97.209 14.332h-.251M25.41 14.377h-.25M25.41 14.332h-.25M125.513 14.377h-.25M125.513 14.332h-.25M140.133 14.377h-.251M140.133 14.332h-.251M10.791 14.377h-.25M10.791 14.332h-.25M25.16 14.377h-.023M25.16 14.332h-.023M125.263 14.377h-.023M125.263 14.332h-.023M139.882 14.377h-.023M139.882 14.332h-.023M10.541 14.377h-.023M10.541 14.332h-.023M97.231 14.377h-.022M97.231 14.332h-.022M125.536 14.377h-.023M125.536 14.332h-.023M10.815 14.377h-.023M10.815 14.332h-.023M145.165 15.015h.319M145.757 15.015h.045M145.802 15.265h-.045M145.484 15.265h-.319M145.165 15.265v-.25M88.26 23.85h-.023l-.023.023h-.023v.023h-.023l-.022.023-.023.022H88.1v.023h-.023v.023h-.045l-.023.023h-.023v.022h-.023v.023h-.022v.023h-.046v.023h-.023l-.022.023h-.023v.022h-.023l-.023.023M61.253 21.414l-1.162-.091M58.088 20.913h.182M61.276 21.186l.478.046.478.068.456.114.455.114.455.159.433.16.57.273" stroke="#3C3C3B" stroke-width=".447" stroke-miterlimit="10" stroke-linecap="round" stroke-linejoin="round"/><path d="M87.758 23.873h.023v-.023h.023l.023-.023h.023v-.022h.045v-.023h.023l.023-.023h.022v-.023h.023v-.022h.023v-.023h.046v-.023h.022v-.023h.046M61.253 21.414l.478.068.432.068.456.091.455.137.433.137.456.182.569.25M58.27 21.186l-.182-.023M60.091 21.072l1.184.114M88.123 23.645l.136.205M58.088 21.163v-.25M77.921 23.053l-.341.296M73.709 23.395l.273.364M74.05 27.63l.342-.296M78.286 27.289l-.296-.342M78.582 23.828l-.342.296M74.483 22.735l.296.364M73.39 26.856l.364-.296M77.489 27.926l-.273-.341M148.831 21.277l-.433-.751M149.082 21.118l-.251.16M148.717 20.526l.365.592M148.581 11.28l-.16-4.235M1.751 11.28l.023-.113M149.173 12.374l-.592-1.094M1.16 12.374l.591-1.094M149.173 14.423v-2.05M1.16 14.423v-2.05M146.508 14.264v.614M146.508 15.402v.615M148.922 12.533l-.638-1.002M1.433 12.533l.341-.57M148.922 12.556v-.023M1.433 12.556v-.023M148.284 11.69l.547.866M1.774 12.123l-.273.433M146.554 14.878h-.068M146.554 15.402h-.068M143.252 15.015v.023M143.252 15.243v.022M148.922 13.877h-.091M1.41 13.877H1.5M143.616 4.153v.023M6.92 4.153v.023M143.616 4.426v.023M6.92 4.426v.023M15.96 13.763v.068M134.736 13.763v.068M110.985 13.763v.068M39.711 13.763v.068M143.958 14.764l1.844-.09M143.457 14.901l.501-.136M121.483 17.36v-.045M121.073 17.36v-.022M121.096 17.36l-.046-.022M121.528 17.315l-.068.045M15.688 13.945v-.114M15.87 13.945v-.114M15.688 13.967v-.022M15.87 13.967v-.022M15.687 13.967l-.022-.022M15.892 13.945l-.022.022M15.665 13.945v-.114M134.462 13.945v-.114M134.645 13.945v-.114M134.462 13.967v-.022M134.645 13.967v-.022M134.44 13.967l-.023-.022M134.667 13.945l-.022.022M134.417 13.945v-.114M110.712 13.945v-.114M110.894 13.945v-.114M110.712 13.967v-.022M110.894 13.967v-.022M110.689 13.967l-.022-.022M110.917 13.945l-.023.022M110.667 13.945v-.114M39.438 13.945v-.114M39.62 13.945v-.114M39.438 13.967v-.022M39.62 13.967v-.022M39.415 13.945v-.114M39.438 13.967l-.023-.022M39.666 13.945l-.023.022M148.284 10.256l.069.023.045.022.023.046.023.091M15.596 13.83v-.067M134.371 13.83v-.067M110.621 13.83v-.067M39.347 13.83v-.067M145.802 15.607l-1.844-.091M143.958 15.516l-.501-.137M1.98 6.453l-.046-.023-.046-.045-.023-.069M121.483 17.224v.09M121.528 17.224v.09M15.892 13.83v.115M134.667 13.83v.115M110.917 13.83v.115M39.666 13.83v.115M191.983 15.015v.114M148.444 6.316v.046l-.023.045-.045.046-.092.046M148.444 10.506v.046l-.023.045-.045.046-.092.023M1.865 6.248l.023-.045.023-.069.045-.023.091-.045M15.596 13.763l-.068-.023M134.371 13.763l-.068-.023M110.621 13.763l-.069-.023M39.347 13.763l-.068-.023M145.484 14.97l.022-.069M16.006 13.603h.023M16.029 13.74l-.068.023M134.781 13.74l-.045.023M111.008 13.603h.023M111.031 13.74l-.046.023M39.757 13.603h.023M39.78 13.74l-.069.023M145.506 15.38l-.022-.046M15.528 13.603h.046M134.303 13.603h.046M110.552 13.603h.046M39.279 13.603h.045M6.465 3.516v.113M144.231 3.516v.113M143.662 3.607v.09M143.867 4.722v-.136M6.67 3.698v-.091M6.1 4.722v-.136M6.465 3.242h.046l.022.023v.023M5.35 3.538l.022.023h.023v.023M148.467 5.724v.023l-.023.023h-.023M148.467 2.81l-.023.022h-.023v.023M144.231 3.242h.046l.023.023v.023M145.302 3.538v.023h.022v.023M144.983 4.677h-.023l-.023-.023v-.023M143.707 4.517v.023l-.022.023h-.023v.023M143.867 4.996h-.046v-.023l-.022-.023v-.023M5.053 4.677h-.022l-.023-.023v-.023M6.67 4.586l-.023-.023V4.54l-.022-.023M6.1 4.996h-.022l-.023-.023-.023-.023v-.023M1.865 5.406l.023-.023h.023M1.865 2.49v-.022h.023v-.023h.023M2.002 12.579v-.046h.045M2.002 1.033v-.022l.023-.023h.022M2.002 7.888v-.023l.023-.023h.022M148.33 12.874v.023l-.023.023h-.023M148.33 1.33v.045h-.046M148.33 8.184v.045h-.023l-.023.023M1.729 10.825v-.023l.023-.022.022-.023M1.729 7.888v-.023h.023v-.023h.022M6.1 3.63v-.114M143.867 3.63v-.114M144.231 4.586v.136M6.465 4.586v.136M6.42 3.402v.022M5.304 3.675v.023M144.186 3.402v.022M145.233 3.675v.023M145.028 4.54v-.023M143.412 4.45v-.024M143.935 4.836v-.022M5.099 4.54v-.023M6.716 4.45v-.024M6.146 4.836v-.022M6.032 3.288v-.023l.023-.023h.046M5.008 3.584V3.56h.023l.022-.023M148.421 5.383h.023l.023.023M148.421 2.445l.023.023h.023v.023M143.799 3.288v-.023l.022-.023h.046M144.937 3.584V3.56h.023l.023-.023M145.324 4.631v.023l-.022.023M144.3 4.927v.023l-.023.023-.023.023h-.023M5.395 4.631v.023h-.023v.023H5.35M6.533 4.927v.023l-.022.023-.023.023h-.023M1.91 5.77h-.022l-.023-.023v-.023M1.91 2.855l-.022-.023-.023-.022M2.047 12.92h-.022l-.023-.023v-.023M2.047 1.375h-.045v-.046M2.047 8.252l-.022-.023h-.023v-.045M148.284 12.533h.046v.046M148.284.988h.023l.023.023v.022M148.284 7.842h.023l.023.023v.023M1.774 11.167h-.022v-.023h-.023v-.023M1.774 8.252l-.022-.023-.023-.023v-.022M6.146 3.424v-.022M5.099 3.698v-.023M143.935 3.424v-.022M145.028 3.698v-.023M145.233 4.517v.023M144.186 4.814v.022M5.304 4.517v.023M6.42 4.814v.022M143.412 4.176v-.023M6.716 4.176v-.023M143.412 4.062V4.04M6.716 4.062V4.04M143.412 3.789v-.023M6.716 3.789v-.023M143.616 3.766v.023M6.92 3.766v.023M143.616 4.04v.022M6.92 4.04v.022M121.096 17.36h.364M15.596 13.763h.365M134.371 13.763h.365M110.621 13.763h.364M39.347 13.763h.364M75.804 27.858l.09-.023.092-.023.068-.045.091-.068.046-.069.045-.068.023-.091.023-.091-.023-.091-.023-.091-.045-.069-.046-.09-.09-.046-.07-.046-.09-.023h-.182l-.092.023-.068.046-.091.045-.046.091-.045.069-.023.09v.182l.023.092.046.068.045.069.091.068.068.046.092.022.09.023zM73.96 25.626h.09l.091-.045.069-.046.068-.045.068-.068.046-.092.023-.09v-.182l-.023-.092-.046-.068-.068-.069-.068-.068-.069-.023-.09-.045h-.182l-.092.045-.091.023-.068.068-.046.069-.046.068-.022.091-.023.091.023.091.022.091.046.092.046.068.068.045.091.046.091.045h.091zM76.168 23.782l.091-.023.091-.023.091-.045.069-.068.045-.069.046-.068.023-.091.022-.091-.022-.091-.023-.091-.046-.069-.045-.09-.069-.046-.09-.046-.092-.023h-.182l-.091.023-.068.046-.069.045-.068.091-.046.069-.022.09v.182l.022.092.046.068.068.069.069.068.068.045.091.023.091.023zM78.013 25.99h.113l.069-.022.114-.046.068-.068.045-.068.046-.091.023-.069.022-.113-.022-.069-.023-.09-.046-.092-.045-.068-.068-.069-.114-.022-.069-.023-.113-.023-.069.023-.09.023-.092.022-.068.069-.069.068-.022.091-.023.091-.023.069.023.113.023.069.022.09.069.07.068.067.091.046.091.023h.069zM121.187 17.315h.341M15.87 13.967h-.182M15.892 13.945h-.227M134.645 13.967h-.205M134.667 13.945h-.25M110.894 13.967h-.205M110.917 13.945h-.25M39.643 13.967h-.205M39.666 13.945h-.25M143.457 15.38V14.9M143.958 15.516v-.752M145.484 14.97v.364M148.467 5.406v.318M148.467 2.49v.32M1.865 5.406v.318M1.865 2.49v.32M5.213 5.77h.068l.046-.023.045-.023.023-.045.023-.069V5.52l-.023-.045-.023-.046-.045-.022-.046-.023h-.114l-.045.023-.046.022-.023.046-.022.045-.023.046.023.045.022.069.023.045.046.023.045.023h.046zM5.213 2.855l.068-.023.046-.022.045-.023.023-.046.023-.045v-.091l-.023-.046-.023-.045-.045-.046-.046-.023h-.114l-.045.023-.046.046-.023.045-.022.046-.023.045.023.046.022.045.023.046.046.023.045.022.046.023zM7.103 2.855l.045-.023.046-.022.045-.023.023-.046.023-.045.023-.046-.023-.045-.023-.046-.023-.045-.045-.046-.046-.023h-.114l-.022.023-.046.046-.046.045-.022.046v.091l.022.045.046.046.046.023.022.022.069.023zM7.103 5.77h.045l.046-.023.045-.023.023-.045.023-.069.023-.045-.023-.046-.023-.045-.023-.046-.045-.022-.046-.023h-.114l-.022.023-.046.022-.046.046-.022.045v.091l.022.069.046.045.046.023.022.023h.069zM145.119 5.77h.046l.045-.023.046-.023.023-.045.022-.069V5.52l-.022-.045-.023-.046-.046-.022-.045-.023h-.091l-.069.023-.045.022-.023.046v.045l-.023.046.023.045v.069l.023.045.045.023.069.023h.045zM145.119 2.855l.046-.023.045-.022.046-.023.023-.046.022-.045v-.091l-.022-.046-.023-.045-.046-.046-.045-.023h-.091l-.069.023-.045.046-.023.045v.046l-.023.045.023.046v.045l.023.046.045.023.069.022.045.023zM143.229 2.855l.046-.023.068-.022.023-.023.045-.046.023-.045v-.091l-.023-.046-.045-.045-.023-.046-.068-.023h-.091l-.046.023-.045.046-.023.045-.023.046v.091l.023.045.023.046.045.023.046.022.045.023zM143.229 5.77h.046l.068-.023.023-.023.045-.045.023-.069V5.52l-.023-.045-.045-.046-.023-.022-.068-.023h-.091l-.046.023-.045.022-.023.046-.023.045v.091l.023.069.023.045.045.023.046.023h.045zM6.1 3.242h.365M5.053 3.538h.296M144.231 3.242h-.364M145.301 3.538h-.318M145.301 4.677h-.318M143.662 4.586h-.273M144.231 4.996h-.364M5.053 4.677h.296M6.67 4.586h.273M6.1 4.996h.365M2.002 12.579v.295M2.002 1.033v.296M2.002 7.888v.296M148.33 12.579v.295M148.33 1.033v.296M148.33 7.888v.296M1.729 11.121v-.296M1.729 8.184v-.296M6.1 3.63h.365M144.231 3.63h-.364M143.662 3.607h-.273M144.231 4.586h-.364M6.67 3.607h.273M6.1 4.586h.365M90.013 21.095l.068-.023.091-.023.069-.022.045-.069.046-.068.022-.068v-.16l-.022-.09-.046-.07-.046-.045-.068-.045-.09-.023-.07-.023-.067.023-.092.023-.068.045-.045.046-.046.068-.023.091-.023.069.023.09.023.069.046.068.045.069.068.022.092.023.068.023zM90.491 17.611l.046.364M148.968 14.924l.022-.023.046-.023.045-.022.046-.046.023-.023v-.113l-.023-.046-.046-.023-.045-.045-.046-.023h-.091l-.045.023-.046.045-.023.023v.046l-.022.045.022.068v.023l.023.046.046.022.045.023.069.023zM44.038 14.218h.068l.045-.023.069-.045.045-.069v-.045l.023-.069-.023-.068v-.045l-.045-.046-.069-.045-.045-.023-.068-.023-.069.023-.045.023-.046.045-.045.046-.023.045-.023.069.023.068.023.045.045.069.046.045.045.023h.069zM1.387 14.924l.046-.023.045-.023.023-.022.045-.046.023-.023v-.113l-.023-.046-.045-.023-.023-.045-.045-.023h-.114l-.023.023-.046.045-.022.023-.023.046-.023.045.023.068.023.023.022.046.046.022.023.023.068.023zM44.038 15.675h.068l.045-.022.069-.046.045-.045v-.069l.023-.068-.023-.068v-.046l-.045-.046-.069-.045-.045-.023-.068-.023-.069.023-.045.023-.046.045-.045.046-.023.046-.023.068.023.068.023.069.045.045.046.046.045.022h.069zM22.36 14.218h.068l.045-.023.046-.045.045-.069.023-.045.023-.069-.023-.068-.023-.045-.045-.046-.046-.045-.045-.023-.069-.023-.068.023-.068.023-.046.045-.023.046-.022.045-.023.069.023.068.022.045.023.069.046.045.068.023h.068zM22.36 15.675h.068l.045-.022.046-.046.045-.045.023-.069.023-.068-.023-.068-.023-.046-.045-.046-.046-.045-.045-.023-.069-.023-.068.023-.068.023-.046.045-.023.046-.022.046-.023.068.023.068.022.069.023.045.046.046.068.022h.068zM118.386 19.41l-.114.068-.091.046-.114.045h-.137M96.935 14.286l.023-.045.046-.023.045-.023h.091l.046.023.045.068M25.115 14.286l.023-.045.045-.023.046-.023h.114l.045.023.045.068M125.24 14.286l.023-.045.045-.023.046-.023h.091l.045.023.069.068M139.836 14.286l.046-.045.023-.023.045-.023h.114l.046.023.045.068M10.518 14.286l.023-.045.023-.023.068-.023h.091l.046.023.045.068M97.231 14.423l-.022.023-.023.045-.046.023h-.114l-.045-.045-.046-.046M25.433 14.423l-.022.023-.046.045-.045.023h-.091l-.046-.045-.068-.046M125.559 14.423l-.046.023-.023.045-.068.023h-.091l-.045-.045-.046-.046M140.155 14.423l-.023.023-.045.045-.046.023h-.091l-.045-.045-.069-.046M10.814 14.423l-.022.023-.046.045-.023.023h-.114l-.045-.045-.046-.046" stroke="#3C3C3B" stroke-width=".447" stroke-miterlimit="10" stroke-linecap="round" stroke-linejoin="round"/><path d="M75.986 32.845h.432l.41-.023.433-.068.387-.091.433-.091.41-.137.387-.16.387-.159.387-.205.341-.205.365-.227.341-.274.32-.25.295-.296.296-.319.273-.319.25-.319.229-.364.227-.364.183-.387.182-.365.136-.387.137-.41.114-.41.068-.41.069-.41.022-.432.023-.433-.023-.41-.022-.41-.069-.432-.068-.41-.114-.41-.137-.387-.136-.41-.182-.387-.183-.387-.227-.364-.228-.342-.25-.341-.274-.32-.296-.318-.296-.273-.319-.274-.341-.25-.365-.228-.341-.227-.387-.183-.387-.182-.388-.136-.41-.137-.432-.114-.387-.091-.433-.046-.41-.045h-.842l-.433.045-.41.046-.41.091-.41.114-.41.137-.386.136-.388.182-.387.183-.341.227-.365.228-.341.25-.319.274-.296.273-.296.319-.273.319-.25.341-.229.342-.227.364-.182.387-.183.387-.136.41-.137.387-.114.41-.068.41-.068.433-.023.41-.023.41.023.432.023.433.068.41.068.41.114.41.137.41.136.386.183.365.182.387.227.364.228.364.25.32.274.318.296.319.296.296.319.25.341.274.365.227.341.205.387.205.388.16.387.159.41.137.41.09.41.092.41.068.432.023h.41z" stroke="#3C3C3B" stroke-width=".447" stroke-miterlimit="10" stroke-linecap="round" stroke-linejoin="round"/><path d="M75.986 32.048h.387l.387-.046.387-.068.387-.068.387-.091.365-.137.364-.137.364-.159.342-.182.319-.205.341-.228.296-.25.296-.25.274-.297.25-.273.25-.319.228-.319.205-.318.182-.342.16-.364.136-.365.137-.364.091-.387.091-.364.046-.388.045-.387V24.943l-.045-.387-.046-.387-.09-.364-.092-.387-.137-.365-.136-.364-.16-.364-.182-.365-.205-.319-.227-.318-.25-.296-.251-.296-.274-.274-.296-.273-.296-.25-.341-.205-.32-.205-.34-.182-.365-.16-.364-.16-.365-.113-.387-.114-.387-.068-.387-.069-.387-.022-.387-.023-.387.023-.388.022-.387.069-.387.068-.364.114-.387.114-.342.16-.364.159-.342.182-.341.205-.319.205-.296.25-.296.273-.273.274-.273.296-.228.296-.228.319-.205.318-.182.365-.16.364-.136.364-.137.365-.09.387-.092.364-.045.387-.046.387V25.74l.046.387.045.388.091.364.091.387.137.364.137.365.159.364.182.342.205.318.228.32.228.318.273.273.273.296.296.25.296.251.319.228.341.205.342.182.364.16.342.136.387.137.364.09.387.07.388.067.387.046h.387z" stroke="#3C3C3B" stroke-width=".447" stroke-miterlimit="10" stroke-linecap="round" stroke-linejoin="round"/><path d="m75.986 31.297.364-.023.387-.046.365-.045.364-.091.364-.091.365-.137.341-.137.342-.182.319-.182.296-.205.296-.228.273-.25.273-.273.25-.274.228-.296.205-.319.205-.318.16-.342.136-.341.137-.342.114-.364.068-.365.068-.364.023-.364.023-.388-.023-.364-.023-.364-.068-.387-.068-.365-.114-.341-.137-.365-.136-.341-.16-.319-.205-.342-.205-.318-.227-.274-.25-.296-.274-.25-.273-.25-.296-.251-.296-.205-.32-.182-.34-.182-.342-.137-.365-.114-.364-.114-.364-.09-.365-.046-.387-.046h-.729l-.387.046-.364.045-.364.091-.365.114-.341.114-.342.137-.341.182-.32.182-.318.205-.273.25-.273.25-.274.251-.25.296-.228.274-.205.318-.205.342-.16.319-.159.341-.114.365-.113.341-.069.365-.068.387-.023.364-.022.364.022.388.023.364.068.364.069.364.114.365.113.341.16.342.16.342.204.318.205.32.228.295.25.274.273.273.274.25.273.228.319.205.319.182.341.182.342.137.341.136.365.091.364.092.364.045.387.046.365.023z" stroke="#3C3C3B" stroke-width=".447" stroke-miterlimit="10" stroke-linecap="round" stroke-linejoin="round"/><path d="M75.986 26.742h.182l.16-.023.159-.045.16-.091.159-.068.113-.114.137-.114.091-.137.114-.136.046-.183.068-.159.023-.16.022-.182-.022-.159-.023-.182-.069-.16-.045-.136-.114-.16-.091-.136-.137-.114-.113-.114-.16-.091-.16-.068-.159-.046-.159-.023-.182-.022-.16.022-.182.023-.16.046-.159.068-.136.091-.137.114-.137.114-.09.136-.092.16-.068.136-.046.16-.045.182V25.513l.046.159.045.16.068.182.091.136.091.137.137.114.137.114.136.068.16.09.16.047.181.022h.16z" stroke="#3C3C3B" stroke-width=".447" stroke-miterlimit="10" stroke-linecap="round" stroke-linejoin="round"/><path d="M75.986 26.583h.182l.16-.023.136-.068.16-.069.136-.09.114-.114.114-.114.09-.137.07-.137.045-.182.045-.16v-.318l-.045-.16-.046-.159-.068-.136-.091-.137-.114-.114-.114-.114-.137-.09-.159-.092-.137-.046-.159-.022-.182-.023-.16.023-.159.023-.16.045-.136.091-.137.091-.136.114-.091.114-.114.137-.046.136-.068.16-.023.159-.023.16.023.159.023.16.068.181.046.137.114.137.09.113.137.114.137.091.137.069.159.068.16.023h.159zM145.689 15.334l-.023.045M145.666 14.901l.023.069" stroke="#3C3C3B" stroke-width=".447" stroke-miterlimit="10" stroke-linecap="round" stroke-linejoin="round"/><path d="m75.986 37.217.546-.023.524-.045.524-.069.524-.068.523-.114.524-.136.524-.137.5-.182.479-.205.478-.228.478-.228.456-.273.478-.273.433-.296.41-.342.41-.319.386-.364.388-.387.364-.387.341-.41.32-.433.295-.432.296-.456.25-.455.251-.478.205-.479.205-.478.182-.523.137-.501.137-.524.114-.501.09-.524.046-.546.046-.524v-1.07l-.046-.524-.045-.524-.091-.524-.114-.523-.137-.524-.137-.524-.182-.5-.205-.479-.205-.5-.25-.48-.25-.454-.297-.456-.296-.433-.319-.432-.341-.387-.364-.41-.388-.365-.387-.364-.41-.341-.41-.32-.432-.318-.478-.273-.456-.25-.478-.251-.478-.228-.478-.182-.501-.182-.524-.16-.524-.136-.523-.091-.524-.092-.524-.068-.524-.023h-1.07l-.546.023-.524.068-.524.091-.524.092-.5.136-.524.16-.501.182-.478.182-.501.228-.456.25-.478.25-.456.274-.432.319-.41.319-.41.341-.41.364-.364.365-.365.41-.341.387-.319.432-.296.433-.296.455-.25.456-.25.478-.206.501-.205.478-.182.501-.16.524-.113.524-.114.523-.091.524-.069.524-.022.524v1.07l.023.524.068.546.09.524.115.5.114.525.16.5.181.524.205.479.205.478.25.478.251.455.296.456.296.432.319.433.341.41.365.387.364.387.41.364.41.32.41.34.433.297.455.273.478.273.456.228.5.228.479.205.5.182.524.137.501.136.524.114.524.068.524.069.546.045.524.023z" stroke="#3C3C3B" stroke-width=".447" stroke-miterlimit="10" stroke-linecap="round" stroke-linejoin="round"/><path d="m76.259 22.347.25.046.251.046.25.09.251.092.228.114.227.159.205.16M76.213 22.803l.228.023.25.045.206.068.227.114.205.114.25.182M78.582 23.828l.136.227.091.25.091.251.046.25.046.274v.524l-.046.25-.046.25-.09.251-.092.228-.114.25-.136.228-.182.205" stroke="#3C3C3B" stroke-width=".447" stroke-miterlimit="10" stroke-linecap="round" stroke-linejoin="round"/><path d="m78.24 24.123.114.205.068.228.069.228.045.228.023.25v.228l-.023.228-.045.227-.069.228-.09.228-.137.205-.205.341M77.489 27.926l-.228.114-.228.114-.25.068-.25.069-.274.022-.273.023-.25-.023-.251-.022-.25-.069-.251-.068-.25-.091-.228-.137-.228-.136-.228-.16" stroke="#3C3C3B" stroke-width=".447" stroke-miterlimit="10" stroke-linecap="round" stroke-linejoin="round"/><path d="m77.216 27.585-.228.09-.205.092-.228.068-.228.046h-.478l-.25-.023-.228-.023-.228-.09-.205-.07-.227-.113-.32-.228M73.39 26.856l-.114-.25-.091-.228-.091-.25-.046-.251-.045-.273v-.501l.022-.274.069-.25.09-.25.092-.251.114-.228.136-.227.183-.205" stroke="#3C3C3B" stroke-width=".447" stroke-miterlimit="10" stroke-linecap="round" stroke-linejoin="round"/><path d="m73.754 26.56-.114-.205-.068-.228-.068-.227-.046-.228-.023-.228v-.25l.023-.228.046-.228.068-.227.091-.228.091-.205.228-.319M74.483 22.757l.228-.136.25-.091.25-.069.251-.068.25-.046h.547M74.779 23.099l.205-.114.228-.091.204-.046.25-.045.229-.023.318.023M117.816 18.408l-.022-.046v-.091l.022-.045M89.626 20.958v-.455M90.013 20.275l.387.228M90.4 20.958l-.387.228M89.626 20.503l.387-.228M90.4 20.503v.455M90.013 21.186l-.387-.228M90.468 17.68v-.092l-.022-.023M90.537 18.044v-.114l-.023-.023M90.468 17.68l.023.068.023.09v.069M44.038 13.671l.273.137M5.782 3.675v.023M6.51 3.675h.16M5.782 4.54v-.023M6.51 4.54h.115M5.463 5.793l.114-.091.137-.069.136-.068.137-.023.136-.023.16.023.16.023.136.045.114.069.16.114M6.852 2.423l-.114.09-.114.092-.159.045-.137.023-.136.023h-.16l-.136-.046-.16-.023-.113-.09-.16-.114M6.852 2.423l.069-.046.09-.023.069-.023h.068l.069.023.09.046.069.045.023.069.045.09v.092" stroke="#3C3C3B" stroke-width=".447" stroke-miterlimit="10" stroke-linecap="round" stroke-linejoin="round"/><path d="M7.444 5.542v.069l-.022.068-.046.068-.046.068-.09.023-.069.046h-.137l-.09-.046-.092-.045M5.463 5.793l-.068.045-.068.023-.092.023h-.068l-.091-.023-.068-.046-.046-.045-.045-.068-.046-.069v-.09M4.871 2.696v-.069l.023-.09.045-.069.069-.045.045-.046.091-.023.069-.023.09.023.07.023.09.046M149.172 14.833l-.204.136M148.74 14.833v-.228M148.74 14.605l.228-.114M148.968 14.491l.204.114M149.173 14.605v.228M148.968 14.97l-.228-.137M44.311 13.808v.319M44.038 14.286l-.274-.159M15.665 13.74h-.023l-.046.023-.022-.023h-.046M15.892 13.74h-.068l-.091.023-.068-.023M16.029 13.74h-.046l-.022.023-.023-.023h-.046M134.417 13.74h-.023l-.023.023-.022-.023h-.046" stroke="#3C3C3B" stroke-width=".447" stroke-miterlimit="10" stroke-linecap="round" stroke-linejoin="round"/><path d="M134.667 13.74h-.068l-.091.023-.091-.023M134.781 13.74h-.023l-.022.023-.046-.023h-.023M110.666 13.74h-.022l-.023.023-.023-.023h-.046M110.917 13.74h-.068l-.091.023-.091-.023M111.031 13.74h-.023l-.023.023-.045-.023h-.023M39.415 13.74h-.023l-.045.023-.023-.023h-.045" stroke="#3C3C3B" stroke-width=".447" stroke-miterlimit="10" stroke-linecap="round" stroke-linejoin="round"/><path d="M39.666 13.74h-.091l-.091.023-.069-.023" stroke="#3C3C3B" stroke-width=".447" stroke-miterlimit="10" stroke-linecap="round" stroke-linejoin="round"/><path d="M39.78 13.74h-.046l-.023.023-.023-.023h-.023M1.592 14.833l-.205.136M1.16 14.833v-.228M1.16 14.605l.227-.114M1.387 14.491l.205.114M1.592 14.605v.228M1.387 14.97l-.228-.137M44.31 15.584l-.272.16M43.764 15.584v-.296M43.764 15.288l.274-.16M44.038 15.129l.273.16M44.311 15.288v.296M44.038 15.744l-.274-.16M144.55 3.675v.023M143.821 3.675h-.159M144.55 4.54v-.023M143.821 4.54h-.113M143.48 5.793l.114-.091.113-.069.137-.068.159-.023.16-.023.136.023.137.023.137.045.159.069.137.114M144.869 2.423l-.114.09-.137.092-.136.045-.137.023-.159.023h-.137l-.137-.046-.159-.023-.114-.09-.159-.114M142.888 2.696v-.069l.022-.09.046-.069.068-.045.069-.046.068-.023.068-.023.091.023.069.023.091.046M143.48 5.793l-.069.045-.068.023-.091.023h-.068l-.091-.023-.069-.046-.045-.045-.069-.068v-.069l-.022-.09M145.484 5.542l-.023.069-.023.068-.045.068-.069.068-.045.023-.091.046h-.16l-.068-.046-.091-.045M144.869 2.423l.068-.046.069-.023.091-.023h.068l.091.023.046.046.068.045.045.069.046.09.023.092M143.753 3.402h-.114M143.753 4.927h-.114M145.506 15.265v.023l-.022.046.022.023v.022M145.506 14.901v.023l-.022.046.022.022v.023M145.506 15.265l-.022-.09v-.069l.022-.091M146.417 10.916h.046l.023-.023.022-.022.023-.046v-.068l-.023-.023-.022-.023h-.023l-.046-.023-.023.023h-.022l-.023.023-.023.023v.068l.023.046.023.022.022.023h.023zM146.417 9.231h.046l.023-.023.022-.022.023-.023v-.069l-.023-.022-.022-.023-.023-.023h-.069l-.022.023-.023.023-.023.023v.068l.023.023.023.022.022.023h.023zM22.633 14.127l-.274.16M22.086 14.127v-.319M22.086 13.808l.273-.136M22.36 13.671l.273.137M22.633 13.808v.319M22.36 14.286l-.274-.159M6.693 3.402h-.114M6.693 4.927h-.114M3.892 10.916h.045l.023-.023.023-.022.023-.046v-.068l-.023-.023-.023-.023h-.023l-.045-.023-.023.023h-.023l-.022.023-.023.023v.068l.023.046.022.022.023.023h.023zM3.892 9.231h.045l.023-.023.023-.022.023-.023v-.069l-.023-.022-.023-.023-.023-.023H3.87l-.023.023-.022.023-.023.023v.068l.023.023.022.022.023.023h.023zM22.633 15.584l-.274.16M22.086 15.584v-.296M22.086 15.288l.273-.16M22.36 15.129l.273.16M22.633 15.288v.296M22.36 15.744l-.274-.16M148.376 14.355v-.41M5.304 3.675h.478M6.51 3.698v-.023M5.304 4.54h.478M6.51 4.517v.023M15.62 13.603h.045M15.983 13.603h.046M134.394 13.603h.023M134.759 13.603h.022M110.644 13.603h.022M111.008 13.603h.023M39.37 13.603h.045M39.734 13.603h.045M145.028 3.675h-.478M143.821 3.698v-.023M145.028 4.54h-.478M143.821 4.517v.023M143.753 3.288h-.114M143.753 4.836h-.114M6.693 3.288h-.114M6.693 4.836h-.114M90.856 21.3l-.16.114-.16.045-.181.069-.16.022-.182.023h-.182l-.16-.045-.182-.046-.16-.068-.159-.114M2.048 4.859v-.068M2.048 4.859v.752M2.048 3.356v-.729M2.048 3.356v.091M1.91 2.627v.73M1.91 3.356v.091M1.91 4.859v-.068M1.91 5.61V4.86M148.284 4.859v-.068M148.284 4.859v.752M148.284 3.356v-.729M148.284 3.356v.091M148.421 2.627v.73M148.421 3.356v.091M148.421 4.859v-.068M148.421 5.61V4.86M1.91 2.331v.296M1.91 5.884V5.61M148.421 2.331v.296M148.421 5.884V5.61M1.865 6.316h.114M148.444 10.506h-.068M148.376 10.438h.068M148.376 10.506v-.068M1.979 6.248v.068M1.865 6.248h.114M96.935 14.286l.023-.022h.023v-.023h.091v-.023h.046v.023h.068l.023.023h.022v.022M97.186 14.286l.023.046M97.231 14.286h-.045M96.958 14.332l.023-.046M96.98 14.286h-.045M97.231 14.423h-.022v.023h-.046v.023H97.004v-.023h-.023v-.023h-.046M148.922 13.877l.228.523M148.922 12.556h-.091M148.922 12.556v1.32M148.831 13.877v-1.321M25.115 14.286h.023v-.022h.022v-.023h.091l.023-.023h.023v.023h.091v.023h.023l.022.022M25.388 14.286l.023.046M25.433 14.286h-.045M25.16 14.332v-.046M25.16 14.286h-.045M25.433 14.423h-.045v.023h-.023l-.022.023H25.206v-.023h-.046v-.023h-.045M125.24 14.286v-.022h.023l.023-.023h.091v-.023h.022l.023.023h.091v.023h.023v.022h.023M125.49 14.286l.023.046M125.559 14.286h-.069M125.263 14.332l.023-.046M125.286 14.286h-.046M125.559 14.423h-.046v.023h-.045v.023H125.308v-.023h-.045v-.023h-.023M1.41 13.877l-.228.523M1.433 12.556H1.5M1.433 13.877H1.41M1.433 12.556v1.32M1.501 13.877v-1.321M139.836 14.286h.023v-.022h.023v-.023h.091v-.023h.046v.023h.091v.023h.022v.022h.023M140.11 14.286l.023.046M140.155 14.286h-.045M139.882 14.332v-.046M139.882 14.286h-.046M140.155 14.423h-.023l-.022.023h-.023l-.023.023H139.928v-.023h-.046v-.023h-.046M10.518 14.286v-.022h.023v-.023H10.655v-.023h.045v.023h.069l.023.023h.022v.022M10.769 14.286l.023.046M10.814 14.286h-.045M10.541 14.332l.023-.046M10.564 14.286h-.046M10.814 14.423h-.022v.023h-.046v.023H10.587v-.023h-.046v-.023h-.023M149.036 14.355l-.205-.479M1.296 14.355l.205-.479M97.209 14.377l-.023.046M97.186 14.423h.045M25.41 14.377l-.022.046M25.388 14.423h.045M125.513 14.377l-.023.046M125.49 14.423h.069M140.133 14.377l-.023.046M140.11 14.423h.045M10.792 14.377l-.023.046M10.769 14.423h.045M96.98 14.423l-.022-.046M96.935 14.423h.046M25.16 14.423v-.046M25.115 14.423h.045M125.286 14.423l-.023-.046M125.24 14.423h.046M139.882 14.423v-.046M139.836 14.423h.046M10.564 14.423l-.023-.046M10.518 14.423h.046M146.486 14.97v-.092M146.486 15.311v-.341M146.486 15.402v-.091M143.457 15.197v.023h-.023v.023h-.022M143.412 15.038h.022v.023h.023v.022M75.804 23.03l.045-.068.046-.068.068-.046.091-.022.069-.023h.182l.068.045.068.046.069.045.022.069.046.09M74.87 26.56l-.023-.091-.068-.114-.091-.091-.114-.046M74.756 24.215l-.09.022-.092-.022-.068-.023-.091-.046-.092-.068M75.03 23.463l.045.091.045.069v.09l.023.092-.045.136M76.942 27.198l-.045-.069-.023-.09-.023-.092v-.068l.023-.137M77.216 26.446h.182l.09.046.07.045.09.069M74.87 26.56v.182l-.023.091-.045.091-.091.091M74.141 26.31l.069-.069.068-.023.091-.022h.091l.114.022M77.102 24.1v-.181l.022-.091.046-.069.091-.09M77.853 24.374l-.068.046-.091.045-.091.023h-.091l-.114-.023M74.756 24.215l.114-.023.114-.069.068-.09.046-.092" stroke="#3C3C3B" stroke-width=".447" stroke-miterlimit="10" stroke-linecap="round" stroke-linejoin="round"/><path d="m77.215 26.446-.114.046-.09.068-.092.091-.045.091M77.102 24.1l.022.115.069.113.114.092.09.045M73.686 25.535l-.091-.045-.046-.046-.045-.09-.046-.07-.023-.09v-.069l.023-.09.023-.069.068-.068.046-.069.068-.045.091-.046M78.309 25.148l.068.046.068.068.046.046.045.09.023.069v.091l-.023.091-.023.069-.068.068-.045.068-.069.046-.09.023M76.19 27.653l-.045.068-.068.069-.068.045-.069.023-.09.023h-.07l-.09-.023-.091-.023-.046-.045-.068-.046-.068-.068-.023-.091M145.666 15.015l.023-.023v-.068l-.023-.023M145.666 15.015l.023.091v.068l-.023.091M145.666 15.38l.023-.023v-.069l-.023-.023M145.689 15.334v-.364M33.199 17.064l2.072 2.095M114.333 19.16l7.787-2.096M72.73 22.575h-.228M73.89 21.414l-.067.227M71.728 22.461l-.365-.09M73.89 20.252l.024.365M71.363 22.37l-.068-.023M73.868 20.184l.023.068M75.644 21.072l-.182-.16M77.261 21.072l-.182.137M75.007 20.275l-.205-.319M78.08 20.252l-.25.274M74.802 19.956l-.023-.068M78.126 20.184l-.045.068M78.764 22.097l-.023-.273M79.925 23.235l-.25-.045M78.878 21.05l.022-.183.046-.182M81.087 23.235l-.365.023M78.946 20.685l.046-.045M81.155 23.213l-.068.022M80.244 24.989l.16-.182M80.267 26.628l-.137-.227M81.064 24.351l.296-.182M81.087 27.448l-.274-.25M81.36 24.17l.09-.047M81.132 27.47l-.045-.022M79.242 28.108l.25-.022M78.103 29.27l.046-.25M80.267 28.222l.364.069M78.104 30.431l-.023-.387M80.631 28.29l.068.046M78.126 30.477l-.023-.046M76.327 29.589l.183.159M74.71 29.589l.206-.114M76.988 30.408l.09.137.092.16M73.89 30.431l.251-.296M77.17 30.704l.023.069M73.845 30.477l.046-.046M73.208 28.587l.023.25M72.07 27.448l.227.046M73.117 29.611l-.092.365M70.908 27.448l.364-.023M73.025 29.976l-.022.068M70.84 27.47l.068-.022M71.728 25.672l-.16.182M71.728 24.055l.136.205M70.93 26.332l-.296.205M70.908 23.235l.273.25M70.635 26.537l-.092.023M70.84 23.213l.068.022M77.921 23.053l.091.023h.023M78.035 23.076l.091.023.137.09M78.263 23.19l.25.296M73.709 23.395v-.069l.022-.045M73.731 23.281l.023-.068.091-.137M73.845 23.076l.296-.25M74.05 27.63l-.068-.022h-.046M73.936 27.608l-.068-.023-.137-.091M73.731 27.494l-.25-.296M78.286 27.289v.068l-.023.046M78.263 27.403l-.046.068-.068.137M78.15 27.608l-.32.25M78.582 23.714v.114M78.513 23.486l.046.068.023.16M74.37 22.757l.067-.023h.046M74.141 22.826l.069-.046.16-.023M73.39 26.97v-.114M73.481 27.198l-.046-.069-.045-.16M77.625 27.926h-.136M77.83 27.858l-.045.023-.16.045M77.58 23.35l-.137.181M77.443 23.532l-.023.022M77.42 23.554l-.159.114M77.853 24.374l.16-.114M78.035 24.237l.205-.113M78.013 24.26l.022-.023M74.392 27.334l.16-.182M74.551 27.152l.023-.023M74.574 27.13l.137-.114M74.141 26.31l-.16.113M73.96 26.446l-.206.114M73.982 26.423l-.023.023M77.99 26.947l-.183-.16M77.807 26.788l-.022-.046M77.785 26.742l-.137-.136M76.942 27.198l.137.136M77.102 27.38l.113.205M77.079 27.334l.023.046M73.982 23.76l.182.136M74.164 23.896l.046.023M74.21 23.919l.114.159M75.03 23.463l-.137-.137M74.87 23.304l-.091-.205M74.893 23.326l-.023-.022M74.141 26.332l.16.16M75.007 23.509l-.16.136M77.284 23.714l.136.159M74.506 23.919l-.16.113M74.551 26.81l.137.16M77.625 26.628l-.16.137M77.694 24.17l.136.181M77.147 27.038l-.16.137M70.862 25.535l-.045.023-.023.023-.046-.023h-.045l-.046-.045-.022-.069M70.862 25.535l.547-.387M71.431 24.716l.046.045.023.068.022.069v.068l-.022.068-.023.046-.068.068M71.431 24.716 71 24.237M70.748 24.306l.023-.046.023-.023.045-.022.046-.023.045.023.069.022M70.635 25.444v-.341l.045-.365.068-.432M72.525 29.11l-.023.046-.023.023-.046.023-.045.022h-.046l-.045-.023M72.525 29.11l.09-.66M72.342 28.108l.069.023.045.023.046.046.068.022.023.069.022.068v.091M72.342 28.108h-.66M71.545 28.313V28.2l.023-.046.046-.023.068-.023M72.297 29.201l-.25-.25-.228-.273-.274-.365M76.19 30.454l.023.046v.091l-.022.022-.023.046-.068.023M76.19 30.454l-.386-.524M75.37 29.885l.046-.023.069-.046h.114l.068.023.068.023.069.068M75.371 29.885l-.478.455M74.961 30.59l-.046-.022-.045-.023v-.046l-.023-.045.023-.046.023-.068M76.1 30.682h-.342l-.364-.023-.433-.068M79.766 28.814h.045l.046.046.023.023v.091l-.023.068M79.766 28.814l-.66-.09M78.787 28.997v-.069l.022-.068.046-.046.045-.045.046-.023.068-.023h.091M78.787 28.997l-.023.66M78.969 29.77l-.046.024h-.068l-.046-.046-.022-.023-.023-.068M79.857 29.042l-.25.25-.274.228-.364.25M81.132 25.125l.023-.022h.091l.046.022.022.046.023.068M81.132 25.125l-.547.388M80.563 25.968l-.046-.068-.022-.069-.023-.045v-.069l.023-.068.022-.045.069-.091M80.563 25.968l.432.455M81.246 26.378l-.023.023-.023.045-.045.023h-.091l-.069-.046M81.337 25.24v.34l-.023.343-.068.455M79.47 21.573l.023-.045.022-.046.023-.023.068-.023h.046l.045.023M79.47 21.573l-.091.66M79.652 22.552h-.068l-.046-.023-.068-.022-.046-.069-.023-.045-.022-.068v-.091M79.652 22.552l.66.023M80.449 22.347v.16l-.023.022-.045.023-.069.023M79.698 21.46l.25.273.228.25.273.364M75.78 20.207l-.022-.046v-.068l.023-.046.023-.045.068-.023M75.78 20.207l.388.524M76.6 20.776l-.045.046-.046.023-.068.022h-.068l-.068-.023-.069-.022-.068-.091M76.6 20.776l.479-.455M77.033 20.093l.046.023h.023l.022.045v.114l-.045.046M75.872 19.98h.364l.342.022.455.091M72.228 21.846h-.045l-.046-.022-.022-.046v-.091l.022-.068M72.228 21.846l.638.114M73.208 21.664v.069l-.023.068-.046.045-.045.046-.068.046-.046.022h-.114M73.208 21.664l.023-.637M73.025 20.89l.023-.023h.046l.045.023.046.023.023.023.022.09M72.138 21.619l.25-.228.273-.228.364-.273M77.215 27.107l-.068-.069M74.232 26.56l.069-.068M74.779 23.6l.068.045M77.74 24.123l-.046.046M77.42 23.873l.069-.046M77.694 24.17l-.046.045-.045.022h-.069l-.045-.022-.046-.023-.045-.023-.023-.046-.023-.068v-.091l.068-.091M74.506 23.919l-.023-.091M74.847 23.645l.023.046v.159l-.023.046-.045.045-.046.023-.045.023h-.046l-.068-.023-.091-.045M74.551 26.81l-.068.046M74.3 26.492l.024-.023.068-.023h.114l.045.046.023.023.046.045.022.046v.068l-.022.046-.069.09M77.466 26.765l.045.068M77.147 27.038l-.045-.045v-.16l.022-.045.046-.046.045-.023.046-.022h.068l.046.023.09.045M77.489 23.828l.068-.023.046.023h.045l.046.045.045.046.023.045v.114l-.023.046M74.483 23.828l-.023-.046.023-.046.023-.068v-.045l.045-.023.069-.023h.091l.068.023M74.483 26.856h-.114l-.045-.023-.046-.022-.023-.046-.022-.046-.023-.045v-.068l.023-.046M77.512 26.833v.114l-.023.046-.046.045-.022.046-.046.023-.068.022-.046-.022h-.045M146.349 14.104h.045l.046.023.045.045.023.046v.046M146.508 16.017v.046l-.023.045-.045.046-.046.022h-.045M148.444 14.355h-.16M2.047 15.812h-.182M15.96 13.83h-.364M134.736 13.83h-.365M110.985 13.83h-.364M39.711 13.83h-.364M60.091 26.606v-.114M59.955 26.606h.137M59.75 20.139h.136M59.75 20.139V26.4M59.955 26.606h-.046l-.045-.023-.046-.023-.045-.045-.023-.046v-.068M148.284 15.812h.16M2.047 14.355h-.182M146.167 16.2l-.023.045v.022h-.046l-.022.023M146.076 13.99l.022.023h.046v.023l.023.045M146.167 15.675v.365M146.167 15.675v-1.07M146.167 14.24v.365M146.167 14.081v.16M2.389 4.79h-.023M2.184 3.652v-.091h.023v-.023h.023v-.045h.022V3.47h.046v-.023h.091M2.389 4.79h-.023v-.022h-.068l-.023-.023h-.023v-.023H2.23V4.7l-.023-.023v-.023h-.023v-.091" stroke="#3C3C3B" stroke-width=".447" stroke-miterlimit="10" stroke-linecap="round" stroke-linejoin="round"/><path d="M2.161 3.652v-.091h.023v-.023h.023v-.022h.023V3.47h.045v-.023h.091M2.366 4.79h-.022v-.022h-.069l-.023-.023H2.23v-.023h-.023V4.7l-.023-.023v-.023h-.023v-.091M2.366 3.447h.023M147.943 4.79h.023M147.943 3.447h.091v.023h.023v.023h.022l.023.023v.022h.023v.023h.023v.091M148.148 4.563v.091h-.023V4.7h-.023v.022h-.023v.023h-.022v.023h-.069l-.022.023h-.023" stroke="#3C3C3B" stroke-width=".447" stroke-miterlimit="10" stroke-linecap="round" stroke-linejoin="round"/><path d="M147.966 3.447h.091v.023h.023v.023h.022l.023.023v.022h.023v.023h.023v.091M148.171 4.563v.091h-.023V4.7h-.023v.022h-.023v.023h-.045v.023h-.046l-.022.023h-.023M147.966 3.447h-.023M59.75 20.093v-1.116M60.251 16.768l.137-.683.159-.66.182-.66.342-1.094M61.07 13.671l.183-.5.227-.456.228-.478.25-.456.274-.432.296-.433.319-.41.319-.41.341-.387.387-.364.387-.364.387-.32.433-.318.41-.296.455-.273.433-.25.478-.251.478-.205.479-.182.5-.182.502-.137.5-.114.524-.114.501-.068.66-.046M71.022 6.225l2.209-.09M61.002 20.047l-1.252.046M89.216 13.671l.228.638.182.66.182.66.228 1.14M79.265 6.225l.524.046.5.045.524.091.501.114.524.16.478.16.478.181.501.205.456.228.455.25.456.274.432.273.41.319.41.319.387.364.365.364.364.387.341.387.32.41.295.433.273.433.251.455.25.456.206.478.25.614M77.056 6.134l2.209.091M89.284 20.047l1.253.046M90.537 20.093v-1.116M146.167 16.04v.16M59.91 18.75l.068-.41M90.377 18.75l-.068-.41M60.137 17.36l.114-.592M90.15 17.383l-.114-.615M71.705 22.461h-.023M81.064 24.351l.023-.023M80.29 28.222h.022M76.988 30.408l.023.023M73.117 29.634v.023M70.93 26.355h-.022M78.878 21.05v-.023M73.89 21.414l.024-.797M71.728 22.461l.774.114M77.261 21.072l.57-.546M75.007 20.275l.455.638M79.925 23.235l.797.023M78.878 21.05l-.137.774M80.267 26.628l.546.57M81.064 24.351l-.66.456M78.104 29.27l-.023.774M80.267 28.222l-.774-.136M74.71 29.589l-.569.546M76.988 30.408l-.478-.66M72.07 27.448l-.798-.023M73.117 29.611l.114-.774M71.728 24.055l-.547-.57M70.93 26.332l.638-.478M145.894 14.036v-.046h.022M145.916 16.29h-.022v-.045M146.6 15.311v-.341M146.599 15.357l-.022.022-.023.023M146.554 14.878l.023.023.022.023M146.6 15.311v.046M146.6 14.924v.046M143.412 14.81h.387M143.799 15.47h-.387M143.252 15.015v-.046h.023v-.091h.023v-.022h.023v-.023h.022v-.023H143.457v.023h.023v.023h.023v.022M143.503 15.402v.023h-.023v.023h-.023v.022H143.343v-.022h-.022v-.023h-.023v-.023h-.023v-.091h-.023v-.046M144.732 15.562h-.296M144.436 14.719h.296M144.732 14.719h.023v.023M144.755 15.539v.023h-.023M144.368 14.742h.022v-.023h.092v.023h.022M144.504 15.539h-.022v.023h-.092v-.023h-.022M60.41 16.017l.114-.501M89.785 15.516l.091.501M73.23 6.134l.296-.023M76.737 6.111l.32.023M148.421 7.045v-.433M148.421 6.612h-.137M73.344 6.476l.023-.205M74.938 6.111h.41M73.526 6.111h1.412M73.23 6.134l.296-.023M73.367 6.27l.023-.045.022-.045.046-.046.068-.023M76.92 6.476l-.023-.205M75.348 6.111h1.39M76.737 6.111l.32.023M76.737 6.111l.069.023.045.023.023.023.023.09M59.91 18.75l-.024.022-.045.069M90.445 18.84l-.022-.022-.046-.069M59.75 18.977v-.045l.045-.069.046-.022M90.446 18.84l.045.023.023.046.023.068M61.002 18.84h-1.047M143.685 4.313h.022v.045h-.045l-.046.023H143.389M143.662 3.903H143.389M6.647 4.313h.137l.068.022h.091M6.647 3.903h-.022v-.046h.159l.068-.023h.091M143.389 4.29h.159l.068-.023h.046M143.389 3.903H143.685l.022.022v.023h-.022" stroke="#3C3C3B" stroke-width=".447" stroke-miterlimit="10" stroke-linecap="round" stroke-linejoin="round"/><path d="M6.943 4.335h-.045l-.046-.022H6.625v-.046h.022M6.943 3.925l-.023.023h-.273M143.685 4.267h.022v.046h-.227l-.046.022h-.045M143.662 3.948H143.434l-.045-.023" stroke="#3C3C3B" stroke-width=".447" stroke-miterlimit="10" stroke-linecap="round" stroke-linejoin="round"/><path d="M6.647 4.267h.069l.068.023h.159M6.647 3.948h-.022v-.023l.022-.022h.296M143.707 4.244v.023h-.159l-.068.023h-.091M143.389 3.925v.023H143.685l.022.023v.023" stroke="#3C3C3B" stroke-width=".447" stroke-miterlimit="10" stroke-linecap="round" stroke-linejoin="round"/><path d="M6.943 4.29h-.091l-.068-.023h-.159v-.023M6.625 3.994V3.97l.022-.023h.296v-.023M143.389 4.38h.273v-.022.023M143.389 3.789H143.616l.046.023h.045v.045h-.022M6.966 4.45l-.023-.024H6.647l-.022-.022V4.38l.022-.023M6.943 3.834h-.091l-.068.023H6.647M143.389 4.335h.091l.068-.022H143.662" stroke="#3C3C3B" stroke-width=".447" stroke-miterlimit="10" stroke-linecap="round" stroke-linejoin="round"/><path d="M143.389 3.834h.114l.045.023h.159v.046h-.022M6.943 4.38h-.227l-.046-.022h-.045v-.045h.022M6.943 3.903H6.647M143.685 4.358l.022.023v.023l-.022.022h-.296v.023" stroke="#3C3C3B" stroke-width=".447" stroke-miterlimit="10" stroke-linecap="round" stroke-linejoin="round"/><path d="M143.662 3.857h-.114l-.068-.023h-.091M6.647 4.38v-.022h.023v.023H6.943M6.647 3.857h-.022v-.045h.045l.046-.023H6.966M90.309 18.84h-1.002" stroke="#3C3C3B" stroke-width=".447" stroke-miterlimit="10" stroke-linecap="round" stroke-linejoin="round"/></svg>