<svg width="236" height="34" viewBox="0 0 236 34" fill="none" xmlns="http://www.w3.org/2000/svg">
<g clip-path="url(#clip0_33_227)">
<path d="M69.2639 4.93403H41.8242V0.488312H40.2098L39.0956 4.93403H36.0986H8.92623L5.93237 16.8842H1.02336L0.632812 18.4455L5.46455 18.7435L2.93538 28.8363H30.373V33.2852H31.9874L33.1016 28.8363H36.0976H63.2699L66.2648 16.8862H71.1738L71.5644 15.3249L66.7327 15.0258L69.2639 4.93403ZM64.8896 14.9124L54.2445 14.2596C47.7023 13.8368 42.5291 13.6749 41.891 6.72841H66.9426L64.8896 14.9124ZM7.30764 18.858L17.9548 19.5128C24.497 19.9315 29.6702 20.0944 30.3082 27.044H5.2557L7.30764 18.858ZM61.8498 27.044H36.0986H33.5527L36.0986 16.8842H7.80366L10.3485 6.72841H36.0986H38.6445L36.0986 16.8862H64.3967L61.8498 27.044Z" fill="#63666F"/>
<path d="M177.689 22.4313L180.437 11.4732C180.761 10.1852 181.671 9.42203 183.056 9.42203H197.739H198.676L199.798 4.94434H197.738H175.804C171.516 4.94434 167.948 6.37366 166.832 10.8256L163.746 23.1335C163.74 23.1634 163.734 23.1944 163.728 23.2222C163.505 24.1524 163.524 24.9609 163.728 25.6549C164.354 27.8102 166.766 28.8477 169.411 28.8477H171.061H193.804L194.934 24.3422H179.256C177.841 24.3411 177.328 23.8729 177.689 22.4313Z" fill="#63666F"/>
<path d="M129.489 5.01035H128.329H113.308L104.26 16.3005L100.977 5.01035H87.4484L81.4722 28.8467H87.4244L91.2296 13.6667L95.6489 28.8137H101.496L113.564 13.7842L109.846 28.8467H123.51L128.329 9.6355L129.489 5.01035Z" fill="#63666F"/>
<path d="M227.094 5.07531H213.822H212.947L197.738 26.0128L195.679 28.8467H197.738H202.522L205.717 24.4577H213.822H220.227L221.765 28.8467H235.478L227.094 5.07531ZM213.822 19.9191H209.019L213.822 13.3191L215.483 11.0328L218.624 19.9191H213.822Z" fill="#63666F"/>
<path d="M163.745 9.08894C163.947 8.17319 163.923 7.4575 163.729 6.89753C163.198 5.37953 161.405 5.01035 159.383 5.01035H133.225L132.104 9.48184H148.771C149.489 9.48184 149.83 9.718 149.629 10.509L148.913 13.3728C148.673 14.3215 147.891 14.5422 146.957 14.5422H138.399L137.276 19.0188H146.223C146.998 19.0188 147.461 19.3427 147.265 20.1326L146.514 23.1212C146.262 24.1308 145.931 24.3401 144.846 24.3401H128.328H128.295L127.167 28.8456H128.328H154.263C155.656 28.8456 156.895 28.4001 157.87 27.6205C158.857 26.8306 159.584 25.689 159.931 24.3133L160.971 20.1697C161.383 18.5177 160.605 17.439 159.125 16.6305C161.46 15.8539 162.266 14.9939 162.859 12.6333C162.885 12.5271 162.961 12.226 163.055 11.8661C163.267 11.0473 163.558 9.91085 163.729 9.17453L163.745 9.08894Z" fill="#63666F"/>
</g>
<defs>
<clipPath id="clip0_33_227">
<rect width="236" height="33" fill="white" transform="translate(0 0.344971)"/>
</clipPath>
</defs>
</svg>
