<svg width="26" height="27" viewBox="0 0 26 27" fill="none" xmlns="http://www.w3.org/2000/svg">
<path d="M18.6679 14.7819C19.6293 14.7819 20.4753 14.2564 20.9111 13.4617L25.5001 5.14255C25.9744 4.29654 25.3591 3.24543 24.3849 3.24543H5.41373L4.20881 0.681763H0.0172119V3.24543H2.58088L7.19548 12.9746L5.46501 16.1022C4.52927 17.8199 5.75983 19.9093 7.70822 19.9093H23.0902V17.3456H7.70822L9.11823 14.7819H18.6679ZM6.63148 5.8091H22.2058L18.6679 12.2183H9.66942L6.63148 5.8091ZM7.70822 21.1911C6.2982 21.1911 5.15737 22.3448 5.15737 23.7548C5.15737 25.1648 6.2982 26.3184 7.70822 26.3184C9.11823 26.3184 10.2719 25.1648 10.2719 23.7548C10.2719 22.3448 9.11823 21.1911 7.70822 21.1911ZM20.5266 21.1911C19.1165 21.1911 17.9757 22.3448 17.9757 23.7548C17.9757 25.1648 19.1165 26.3184 20.5266 26.3184C21.9366 26.3184 23.0902 25.1648 23.0902 23.7548C23.0902 22.3448 21.9366 21.1911 20.5266 21.1911Z" fill="black"/>
</svg>
