<svg width="55" height="45" viewBox="0 0 55 45" fill="none" xmlns="http://www.w3.org/2000/svg">
<g filter="url(#filter0_d_4292_2)">
<path d="M37.7429 5H18.2571C17.5628 5 17 5.89543 17 7V26C17 27.1046 17.5628 28 18.2571 28H37.7429C38.4372 28 39 27.1046 39 26V7C39 5.89543 38.4372 5 37.7429 5Z" fill="white"/>
<path d="M28 30L26 28H30L28 30Z" fill="white"/>
</g>
<path d="M24.4437 15.345H23.428V17.2151H24.4437V15.345Z" fill="#010101"/>
<path d="M24.4437 19.0846H23.428V20.9544H24.4437V19.0846Z" fill="#010101"/>
<path d="M24.4437 11.6052H23.428V13.475H24.4437V11.6052Z" fill="#010101"/>
<path d="M27.5604 19.0846H26.5447V20.9544H27.5604V19.0846Z" fill="#010101"/>
<path d="M27.5604 15.345H26.5447V17.2151H27.5604V15.345Z" fill="#010101"/>
<path d="M27.5604 11.6052H26.5447V13.475H27.5604V11.6052Z" fill="#010101"/>
<path d="M34.3387 17.501H32.3515V18.5167H34.3387V17.501Z" fill="#010101"/>
<path d="M34.3387 19.994H32.3515V21.0097H34.3387V19.994Z" fill="#010101"/>
<path d="M30.9896 23.9997H34.6315C35.7401 23.9997 36.6426 23.0972 36.6426 21.9883V14.5579L30.9893 14.557V8.00001H20V24H29.9739L30.9896 23.9997ZM35.6269 15.5736V21.9883C35.6269 22.5374 35.18 22.984 34.6315 22.984H30.9896V15.5724L35.6269 15.5736ZM21.0157 22.984V9.01571H29.9736V14.5567V22.9837L21.0157 22.984Z" fill="#010101"/>
<defs>
<filter id="filter0_d_4292_2" x="7" y="0" width="42" height="45" filterUnits="userSpaceOnUse" color-interpolation-filters="sRGB">
<feFlood flood-opacity="0" result="BackgroundImageFix"/>
<feColorMatrix in="SourceAlpha" type="matrix" values="0 0 0 0 0 0 0 0 0 0 0 0 0 0 0 0 0 0 127 0" result="hardAlpha"/>
<feOffset dy="5"/>
<feGaussianBlur stdDeviation="5"/>
<feComposite in2="hardAlpha" operator="out"/>
<feColorMatrix type="matrix" values="0 0 0 0 0 0 0 0 0 0 0 0 0 0 0 0 0 0 0.35 0"/>
<feBlend mode="normal" in2="BackgroundImageFix" result="effect1_dropShadow_4292_2"/>
<feBlend mode="normal" in="SourceGraphic" in2="effect1_dropShadow_4292_2" result="shape"/>
</filter>
</defs>
</svg>
