<svg width="107" height="52" viewBox="0 0 107 52" fill="none" xmlns="http://www.w3.org/2000/svg">
<g filter="url(#filter0_d_409_399)">
<rect x="11" y="6" width="84.8012" height="25.0123" rx="7" fill="#F11E24"/>
<rect x="11" y="6" width="84.8012" height="25.0123" rx="7" stroke="white" stroke-width="2"/>
<path d="M62.2342 21.0563L63.4972 16.0079C63.6465 15.4145 64.0647 15.0629 64.7012 15.0629H71.4515H71.8826L72.3982 13.0001H71.451H61.3677C59.396 13.0001 57.7561 13.6585 57.2429 15.7095L55.8243 21.3798C55.8214 21.3936 55.8186 21.4079 55.8157 21.4207C55.7134 21.8492 55.7221 22.2217 55.8157 22.5415C56.1037 23.5344 57.2127 24.0124 58.4287 24.0124H59.1872H69.6426L70.162 21.9367H62.9543C62.3038 21.9362 62.0681 21.7205 62.2342 21.0563Z" fill="white"/>
<path d="M40.0745 13.0304H39.5411H32.6358L28.476 18.2318L26.9667 13.0304H20.7474L18 24.0118H20.7364L22.4858 17.0184L24.5174 23.9966H27.2053L32.7534 17.0725L31.0444 24.0118H37.3261L39.5411 15.1612L40.0745 13.0304Z" fill="white"/>
<path d="M84.9458 13.0604H78.8446H78.4423L71.4501 22.7063L70.5039 24.0119H71.4501H73.6498L75.1183 21.9898H78.8446H81.7888L82.496 24.0119H88.8002L84.9458 13.0604ZM78.8446 19.8989H76.6363L78.8446 16.8583L79.6079 15.805L81.0519 19.8989H78.8446Z" fill="white"/>
<path d="M55.8236 14.9094C55.9163 14.4875 55.9052 14.1578 55.8159 13.8998C55.5721 13.2005 54.7478 13.0304 53.8179 13.0304H41.7927L41.2771 15.0904H48.9394C49.2697 15.0904 49.4262 15.1992 49.3341 15.5636L49.0047 16.883C48.8943 17.3201 48.5347 17.4217 48.1056 17.4217H44.1714L43.6549 19.4841H47.7681C48.1243 19.4841 48.3374 19.6333 48.2472 19.9972L47.902 21.3741C47.7858 21.8392 47.6337 21.9356 47.1349 21.9356H39.5412H39.5263L39.0078 24.0113H39.5412H51.4641C52.1045 24.0113 52.6744 23.8061 53.1228 23.4469C53.5764 23.083 53.9106 22.5571 54.0699 21.9233L54.5481 20.0143C54.7377 19.2532 54.3801 18.7563 53.6993 18.3838C54.7727 18.0261 55.1434 17.6298 55.416 16.5423C55.428 16.4934 55.4631 16.3547 55.5063 16.1889C55.6037 15.8116 55.7377 15.2881 55.8159 14.9488L55.8236 14.9094Z" fill="white"/>
<path d="M53.4004 36.0123L41.4004 30.0123L65.4004 30.0123L53.4004 36.0123Z" fill="white"/>
</g>
<defs>
<filter id="filter0_d_409_399" x="0" y="0" width="106.801" height="51.0123" filterUnits="userSpaceOnUse" color-interpolation-filters="sRGB">
<feFlood flood-opacity="0" result="BackgroundImageFix"/>
<feColorMatrix in="SourceAlpha" type="matrix" values="0 0 0 0 0 0 0 0 0 0 0 0 0 0 0 0 0 0 127 0" result="hardAlpha"/>
<feOffset dy="5"/>
<feGaussianBlur stdDeviation="5"/>
<feComposite in2="hardAlpha" operator="out"/>
<feColorMatrix type="matrix" values="0 0 0 0 0 0 0 0 0 0 0 0 0 0 0 0 0 0 0.2 0"/>
<feBlend mode="normal" in2="BackgroundImageFix" result="effect1_dropShadow_409_399"/>
<feBlend mode="normal" in="SourceGraphic" in2="effect1_dropShadow_409_399" result="shape"/>
</filter>
</defs>
</svg>
